<?xml version="1.0" encoding="UTF-8"?>
<svg width="560px" height="160px" viewBox="0 0 560 160" version="1.1" xmlns="http://www.w3.org/2000/svg" xmlns:xlink="http://www.w3.org/1999/xlink" style="background: #FF4400;">
    <title>Guillotina</title>
    <desc>REST Resource Database</desc>
    <defs></defs>
    <g id="Page-1" stroke="none" stroke-width="1" fill="none" fill-rule="evenodd">
        <g id="guillotina-type--inverse" fill="#FFFFFF">
            <path d="M86.0894,79.0236981 L121.0994,79.0236981 C121.0994,82.6463396 120.9494,85.9384151 120.6494,88.8969057 C120.3494,91.8538868 119.7494,94.6010566 118.8494,97.1369057 C117.5894,100.700679 115.8794,103.855396 113.7194,106.602566 C111.5594,109.349736 109.0244,111.644075 106.1144,113.484075 C103.2044,115.327094 100.0079,116.729358 96.5309,117.695396 C93.0509,118.661434 89.3879,119.144453 85.5509,119.144453 C80.2694,119.144453 75.4544,118.268981 71.1044,116.518038 C66.7529,114.768604 63.0179,112.308226 59.8994,109.136906 C56.7794,105.967094 54.3494,102.163321 52.6094,97.7270943 C50.8694,93.2878491 49.9994,88.3836981 49.9994,83.0101132 C49.9994,77.6969057 50.8544,72.821434 52.5644,68.3821887 C54.2744,63.9444528 56.7044,60.1557736 59.8544,57.0161509 C63.0044,53.8780377 66.7994,51.4327547 71.2394,49.6818113 C75.6809,47.9293585 80.6279,47.0538868 86.0894,47.0538868 C93.1694,47.0538868 99.3779,48.5935094 104.7194,51.6742642 C110.0594,54.752 114.2894,59.5218113 117.4109,65.9821887 L100.6709,72.9557736 C99.1094,69.2123774 97.0844,66.5270943 94.5944,64.8969057 C92.1044,63.266717 89.2694,62.4516226 86.0894,62.4516226 C83.4494,62.4516226 81.0509,62.9482264 78.8894,63.9444528 C76.7294,64.9406792 74.8844,66.3610566 73.3544,68.2010566 C71.8244,70.0440755 70.6229,72.2629434 69.7544,74.8576604 C68.8829,77.4553962 68.4494,80.3535094 68.4494,83.552 C68.4494,86.4501132 68.8244,89.1384151 69.5744,91.6123774 C70.3244,94.0878491 71.4494,96.2312453 72.9494,98.042566 C74.4494,99.8553962 76.3094,101.25766 78.5309,102.255396 C80.7479,103.251623 83.3294,103.749736 86.2694,103.749736 C88.0079,103.749736 89.6894,103.553509 91.3094,103.159547 C92.9309,102.767094 94.3829,102.134642 95.6759,101.25766 C96.9644,100.382189 98.0279,99.2501132 98.8694,97.861434 C99.7094,96.4742642 100.2779,94.7821887 100.5794,92.7897358 L86.0894,92.7897358 L86.0894,79.0236981 Z" id="Fill-1"></path>
            <path d="M147.01805,70.7836981 L147.01805,96.957283 C147.01805,102.694642 149.77805,105.559547 155.29955,105.559547 C160.81805,105.559547 163.57955,102.694642 163.57955,96.957283 L163.57955,70.7836981 L179.86805,70.7836981 L179.86805,100.125585 C179.86805,106.40634 177.81155,111.115774 173.70455,114.253887 C169.59455,117.393509 163.45805,118.96483 155.29955,118.96483 C147.13805,118.96483 141.00305,117.393509 136.89305,114.253887 C132.78305,111.115774 130.72955,106.40634 130.72955,100.125585 L130.72955,70.7836981 L147.01805,70.7836981 Z" id="Fill-4"></path>
            <path d="M189.85895,52.9417358 C189.85895,51.6738113 190.09595,50.4813585 190.57745,49.3628679 C191.05745,48.2489057 191.71595,47.2662642 192.55745,46.4209811 C193.39745,45.5756981 194.37245,44.9115472 195.48395,44.4270189 C196.59245,43.9455094 197.77745,43.7024906 199.03745,43.7024906 C200.29745,43.7024906 201.48245,43.9455094 202.59395,44.4270189 C203.70245,44.9115472 204.67745,45.5756981 205.51745,46.4209811 C206.35745,47.2662642 207.01745,48.2489057 207.49895,49.3628679 C207.97745,50.4813585 208.21895,51.6738113 208.21895,52.9417358 C208.21895,54.2096604 207.97745,55.4021132 207.49895,56.5175849 C207.01745,57.6360755 206.35745,58.6172075 205.51745,59.4624906 C204.67745,60.309283 203.70245,60.9719245 202.59395,61.4549434 C201.48245,61.9394717 200.29745,62.1779623 199.03745,62.1779623 C197.77745,62.1779623 196.59245,61.9394717 195.48395,61.4549434 C194.37245,60.9719245 193.39745,60.309283 192.55745,59.4624906 C191.71595,58.6172075 191.05745,57.6360755 190.57745,56.5175849 C190.09595,55.4021132 189.85895,54.2096604 189.85895,52.9417358" id="Fill-6"></path>
            <path d="M288.6758,93.7864151 C288.6758,95.3562264 288.9593,96.7901887 289.5293,98.0898113 C290.1008,99.3864151 290.8493,100.518491 291.7793,101.486038 C292.7108,102.450566 293.8193,103.205283 295.1108,103.750189 C296.3993,104.292075 297.7658,104.563774 299.2073,104.563774 C300.6443,104.563774 302.0108,104.292075 303.3008,103.750189 C304.5908,103.205283 305.7008,102.450566 306.6308,101.486038 C307.5608,100.518491 308.3093,99.3864151 308.8808,98.0898113 C309.4508,96.7901887 309.7358,95.3879245 309.7358,93.8769811 C309.7358,92.429434 309.4508,91.0543396 308.8808,89.7562264 C308.3093,88.4581132 307.5608,87.3260377 306.6308,86.36 C305.7008,85.3939623 304.5908,84.6392453 303.3008,84.0958491 C302.0108,83.5524528 300.6443,83.2807547 299.2073,83.2807547 C297.7658,83.2807547 296.3993,83.5524528 295.1108,84.0958491 C293.8193,84.6392453 292.7108,85.3939623 291.7793,86.36 C290.8493,87.3260377 290.1008,88.4430189 289.5293,89.7109434 C288.9593,90.9788679 288.6758,92.3373585 288.6758,93.7864151 M271.4858,93.605283 C271.4858,90.165283 272.1743,86.9486792 273.5558,83.96 C274.9358,80.9728302 276.8558,78.3750943 279.3173,76.1713208 C281.7743,73.9675472 284.7008,72.2316981 288.0908,70.9637736 C291.4808,69.6958491 295.1858,69.0618868 299.2073,69.0618868 C303.1658,69.0618868 306.8408,69.6807547 310.2308,70.92 C313.6208,72.1577358 316.5608,73.8784906 319.0508,76.0822642 C321.5393,78.2845283 323.4743,80.9124528 324.8558,83.96 C326.2358,87.010566 326.9258,90.3766038 326.9258,94.0596226 C326.9258,97.7411321 326.2193,101.108679 324.8108,104.156226 C323.3993,107.205283 321.4658,109.831698 319.0058,112.035472 C316.5443,114.240755 313.5908,115.946415 310.1408,117.150943 C306.6893,118.36 302.9558,118.965283 298.9358,118.965283 C294.9758,118.965283 291.3158,118.36 287.9573,117.150943 C284.5943,115.946415 281.7023,114.224151 279.2693,111.990189 C276.8408,109.757736 274.9358,107.086038 273.5558,103.975094 C272.1743,100.86566 271.4858,97.4075472 271.4858,93.605283" id="Fill-8"></path>
            <polygon id="Fill-10" points="354.7343 84.4570566 354.7343 117.243472 338.4443 117.243472 338.4443 84.4570566 333.0443 84.4570566 333.0443 70.7830943 338.4443 70.7830943 338.4443 56.8359245 354.7343 56.8359245 354.7343 70.7830943 364.0058 70.7830943 364.0058 84.4570566"></polygon>
            <path d="M371.3825,117.242717 L387.6725,117.242717 L387.6725,70.7838491 L371.3825,70.7838491 L371.3825,117.242717 Z M370.3025,52.9423396 C370.3025,51.6744151 370.541,50.4819623 371.0225,49.3634717 C371.5025,48.248 372.161,47.2668679 373.0025,46.4200755 C373.844,45.5763019 374.816,44.9106415 375.9275,44.4276226 C377.036,43.9461132 378.2225,43.7030943 379.4825,43.7030943 C380.7425,43.7030943 381.926,43.9461132 383.0375,44.4276226 C384.1475,44.9106415 385.1225,45.5763019 385.964,46.4200755 C386.801,47.2668679 387.4625,48.248 387.9425,49.3634717 C388.421,50.4819623 388.6625,51.6744151 388.6625,52.9423396 C388.6625,54.2087547 388.421,55.402717 387.9425,56.5181887 C387.4625,57.6366792 386.801,58.6163019 385.964,59.4630943 C385.1225,60.3083774 384.1475,60.9725283 383.0375,61.4540377 C381.926,61.9400755 380.7425,62.178566 379.4825,62.178566 C378.2225,62.178566 377.036,61.9400755 375.9275,61.4540377 C374.816,60.9725283 373.844,60.3083774 373.0025,59.4630943 C372.161,58.6163019 371.5025,57.6366792 371.0225,56.5181887 C370.541,55.402717 370.3025,54.2087547 370.3025,52.9423396 L370.3025,52.9423396 Z" id="Fill-12"></path>
            <path d="M398.83355,70.7836981 L415.12205,70.7836981 L415.12205,76.6689811 C417.34205,73.9535094 419.59205,72.1286038 421.87205,71.1912453 C424.15205,70.2538868 426.82205,69.7874717 429.88205,69.7874717 C433.12205,69.7874717 435.89705,70.3142642 438.20855,71.3708679 C440.51705,72.4289811 442.48355,73.9233208 444.10355,75.8538868 C445.42205,77.4252075 446.32055,79.1761509 446.80205,81.1082264 C447.28205,83.0403019 447.52205,85.2440755 447.52205,87.7180377 L447.52205,117.242566 L431.23355,117.242566 L431.23355,93.7859623 C431.23355,91.4931321 431.06555,89.6365283 430.73855,88.2161509 C430.40705,86.797283 429.82205,85.6652075 428.98355,84.8199245 C428.26205,84.0953962 427.45205,83.5836981 426.55205,83.2803019 C425.65205,82.9799245 424.69055,82.8274717 423.67205,82.8274717 C420.91205,82.8274717 418.79705,83.6576604 417.32705,85.3180377 C415.85705,86.9799245 415.12205,89.3482264 415.12205,92.4289811 L415.12205,117.242566 L398.83355,117.242566 L398.83355,70.7836981 Z" id="Fill-14"></path>
            <path d="M473.7104,93.8763774 C473.7104,95.3873208 473.9804,96.7910943 474.5204,98.0892075 C475.0604,99.3858113 475.7954,100.517887 476.7254,101.485434 C477.6554,102.451472 478.7639,103.206189 480.0554,103.749585 C481.3454,104.291472 482.7404,104.56317 484.2404,104.56317 C485.6804,104.56317 487.0454,104.291472 488.3354,103.749585 C489.6239,103.206189 490.7354,102.451472 491.6669,101.485434 C492.5954,100.517887 493.3454,99.4009057 493.9169,98.1329811 C494.4854,96.8650566 494.7704,95.506566 494.7704,94.0590189 C494.7704,92.6084528 494.4854,91.2363774 493.9169,89.9382642 C493.3454,88.6401509 492.5954,87.5080755 491.6669,86.5420377 C490.7354,85.576 489.6239,84.8197736 488.3354,84.2778868 C487.0454,83.7329811 485.6804,83.4627925 484.2404,83.4627925 C482.7404,83.4627925 481.3454,83.7329811 480.0554,84.2778868 C478.7639,84.8197736 477.6554,85.576 476.7254,86.5420377 C475.7954,87.5080755 475.0604,88.6114717 474.5204,89.8461887 C473.9804,91.0839245 473.7104,92.4288302 473.7104,93.8763774 L473.7104,93.8763774 Z M494.2304,70.7835472 L510.6104,70.7835472 L510.6104,117.242415 L494.2304,117.242415 L494.2304,112.08166 C490.7489,116.487698 486.0419,118.691472 480.1004,118.691472 C476.7404,118.691472 473.6504,118.071094 470.8304,116.836377 C468.0089,115.598642 465.5519,113.861283 463.4504,111.627321 C461.3504,109.394868 459.7154,106.768453 458.5469,103.749585 C457.3754,100.730717 456.7919,97.4401509 456.7919,93.8763774 C456.7919,90.5571321 457.3604,87.4024151 458.5004,84.4122264 C459.6389,81.4235472 461.2304,78.8137358 463.2704,76.5797736 C465.3089,74.3458113 467.7404,72.5797736 470.5604,71.2801509 C473.3789,69.9835472 476.5004,69.3329811 479.9219,69.3329811 C485.6804,69.3329811 490.4504,71.3571321 494.2304,75.4009057 L494.2304,70.7835472 Z" id="Fill-15"></path>
            <polygon id="Fill-16" points="218.3882 51.7933585 218.3882 117.242415 234.6767 117.242415 234.6767 47.4009057"></polygon>
            <polygon id="Fill-17" points="245.8364 44.3924528 245.8364 117.243774 262.1264 117.243774 262.1264 40"></polygon>
            <polygon id="Fill-18" points="190.9385 74.8418113 190.9385 117.243321 207.2285 117.243321 207.2285 70.7844528 205.988 70.7844528"></polygon>
        </g>
    </g>
</svg>