<svg xmlns="http://www.w3.org/2000/svg" width="100" height="100" viewBox="0 0 100 100">
  <g fill="none" fill-rule="evenodd">
    <path fill="#FFF" d="M41.6658333,8.33416667 L41.6658333,19.4452778 L47.2241667,19.4452778 L47.2241667,13.8897222 L69.4436111,13.8897222 L69.4436111,30.5563889 L86.1102778,30.5563889 L86.1102778,69.4452778 L69.4436111,69.4452778 L69.4436111,74.9980556 L91.6658333,74.9980556 L91.6658333,26.6258333 L73.3741667,8.33416667 L41.6658333,8.33416667 Z M75.0019444,17.8175 L82.1825,24.9980556 L75.0019444,24.9980556 L75.0019444,17.8175 Z"/>
    <path fill="#FFF" d="M13.8883333,24.9991667 L13.8883333,91.6658333 L63.8883333,91.6658333 L63.8883333,43.2936111 L45.5966667,24.9991667 L13.8883333,24.9991667 Z M19.4438889,30.5575 L41.6661111,30.5575 L41.6661111,47.2213889 L58.3327778,47.2213889 L58.3327778,86.1130556 L19.4438889,86.1130556 L19.4438889,30.5575 Z M47.2244444,34.4852778 L54.405,41.6658333 L47.2244444,41.6658333 L47.2244444,34.4852778 Z"/>
    <rect width="100" height="100"/>
  </g>
</svg>
