<svg xmlns="http://www.w3.org/2000/svg" width="36" height="36" viewBox="0 0 36 36">
  <path fill-rule="evenodd" d="M11.3846154,22 L12.6153846,14 L7,14 L7,12 L12.9230769,12 L14,5 L16,5 L14.9230769,12 L21.9230769,12 L23,5 L25,5 L23.9230769,12 L29,12 L29,14 L23.6153846,14 L22.3846154,22 L29,22 L29,24 L22.0769231,24 L21,31 L19,31 L20.0769231,24 L13.0769231,24 L12,31 L10,31 L11.0769231,24 L7,24 L7,22 L11.3846154,22 Z M13.3846154,22 L20.3846154,22 L21.6153846,14 L14.6153846,14 L13.3846154,22 Z"/>
</svg>
