<svg xmlns="http://www.w3.org/2000/svg" width="100" height="100" viewBox="0 0 100 100">
  <g fill="none" fill-rule="evenodd">
    <path fill="#FFF" d="M50,58.3333333 C45.4055556,58.3333333 41.6666667,54.5944444 41.6666667,50 C41.6666667,45.4055556 45.4055556,41.6666667 50,41.6666667 C54.5944444,41.6666667 58.3333333,45.4055556 58.3333333,50 C58.3333333,54.5944444 54.5944444,58.3333333 50,58.3333333 M50,36.1111111 C42.3416667,36.1111111 36.1111111,42.3416667 36.1111111,50 C36.1111111,57.6583333 42.3416667,63.8888889 50,63.8888889 C57.6583333,63.8888889 63.8888889,57.6583333 63.8888889,50 C63.8888889,42.3416667 57.6583333,36.1111111 50,36.1111111"/>
    <path fill="#FFF" d="M75.91,75.1572222 L75.1572222,75.91 L65.5266667,69.6766667 L64.0016667,70.71 C61.21,72.6016667 58.0961111,73.8905556 54.7433333,74.5322222 L52.9377778,74.8794444 L50.5322222,86.11 L49.4683333,86.11 L47.06,74.8794444 L45.2544444,74.5322222 C41.9016667,73.8905556 38.7877778,72.6016667 35.9961111,70.71 L34.4738889,69.6766667 L24.8405556,75.91 L24.0905556,75.1572222 L30.3211111,65.5266667 L29.2877778,64.0016667 C27.3961111,61.21 26.1072222,58.0933333 25.4627778,54.7433333 L25.1155556,52.9377778 L13.8877778,50.5322222 L13.8877778,49.4683333 L25.1155556,47.0627778 L25.4627778,45.2544444 C26.1072222,41.9044444 27.3961111,38.7905556 29.2877778,35.9961111 L30.3211111,34.4738889 L24.0905556,24.8433333 L24.8405556,24.0877778 L34.4738889,30.3211111 L35.9961111,29.2877778 C38.7877778,27.3988889 41.9016667,26.11 45.2544444,25.4655556 L47.06,25.1183333 L49.4683333,13.8877778 L50.5322222,13.8877778 L52.9377778,25.1183333 L54.7433333,25.4655556 C58.0961111,26.11 61.21,27.3988889 64.0016667,29.2877778 L65.5266667,30.3211111 L75.1572222,24.0877778 L75.91,24.8433333 L69.6794444,34.4738889 L70.71,35.9961111 C72.6044444,38.7905556 73.8905556,41.9044444 74.535,45.2544444 L74.8822222,47.0627778 L86.11,49.4683333 L86.11,50.5322222 L74.8822222,52.9377778 L74.535,54.7433333 C73.8905556,58.0933333 72.6044444,61.21 70.71,64.0016667 L69.6794444,65.5266667 L75.91,75.1572222 Z M91.6655556,55.0238889 L91.6655556,44.9766667 L79.585,42.3877778 C78.8711111,39.585 77.7738889,36.9266667 76.31,34.4544444 L83.0155556,24.0877778 L75.91,16.9877778 L65.5461111,23.6933333 C63.0738889,22.2266667 60.4155556,21.1322222 57.6127778,20.4155556 L55.0238889,8.33222222 L44.9766667,8.33222222 L42.3877778,20.4155556 C39.5822222,21.1322222 36.9266667,22.2266667 34.4544444,23.6933333 L24.0905556,16.9877778 L16.985,24.0877778 L23.6905556,34.4544444 C22.2266667,36.9266667 21.1294444,39.585 20.4127778,42.3877778 L8.33222222,44.9766667 L8.33222222,55.0238889 L20.4127778,57.6127778 C21.1294444,60.4127778 22.2266667,63.0711111 23.6905556,65.5461111 L16.985,75.91 L24.0905556,83.0127778 L34.4544444,76.3072222 C36.9266667,77.7711111 39.5822222,78.8683333 42.3877778,79.585 L44.9766667,91.6655556 L55.0238889,91.6655556 L57.6127778,79.585 C60.4155556,78.8683333 63.0738889,77.7711111 65.5461111,76.3072222 L75.91,83.0127778 L83.0155556,75.91 L76.31,65.5461111 C77.7738889,63.0711111 78.8711111,60.4127778 79.585,57.6127778 L91.6655556,55.0238889 Z"/>
  </g>
</svg>
