<svg xmlns="http://www.w3.org/2000/svg" width="36" height="36" viewBox="0 0 36 36">
  <g fill-rule="evenodd">
    <path d="M5,27 L5,19 L13.101,19 C13.565,21.279 15.585,23 18,23 C20.415,23 22.435,21.279 22.899,19 L31,19 L31,27 L5,27 Z M10.618,7 L25.382,7 L30.382,17 L21,17 L21,18 C21,19.654 19.654,21 18,21 C16.346,21 15,19.654 15,18 L15,17 L5.618,17 L10.618,7 Z M14,5 L9.382,5 L3,17.764 L3,29 L33,29 L33,17.764 L26.618,5 L22,5 L24,7 L12,7 L14,5 Z"/>
    <polygon points="17 8.414 17 19 19 19 19 8.414 22.293 11.707 23.707 10.293 18 4.586 12.293 10.293 13.707 11.707"/>
  </g>
</svg>
