<svg xmlns="http://www.w3.org/2000/svg" width="36" height="36" viewBox="0 0 36 36">
  <path fill-rule="evenodd" d="M11,5 L11,9.41421356 L13,11.4499998 L13,14.5500002 L10,17.5981757 L10,21 L17,21 L17,31 L19,31 L19,21 L26,21 L26,17.5857864 L23,14.5500002 L23,11.4499998 L25.0044307,9.41522727 L25.0044307,5 L11,5 Z M23.0044308,7 L23.0044308,8.55000019 L21,10.5822805 L21,15.4142136 L24,18.4500008 L24,19 L12,19 L12,18.4500008 L15,15.4131138 L15,10.5857864 L13,8.55000019 L13,7 L23.0044308,7 Z" transform="rotate(90 18 18)"/>
</svg>
