<svg xmlns="http://www.w3.org/2000/svg" width="36" height="36" viewBox="0 0 36 36">
  <path fill-rule="evenodd" d="M11.0717968,29 L16.0621778,20.3564065 L10,16.8564065 L11.7009121,13.9103402 L15.8230761,12.7705428 L17.3730763,10.0858637 L16.6589186,7.32282108 L18.8660254,3.5 L30.9942181,10.5022153 L28.7866045,14.3259143 L26.0333303,15.0858637 L24.4833302,17.7705428 L25.5635132,21.8996108 L23.8564065,24.8564065 L17.7942286,21.3564065 L13.3811978,29 L26,29 L26,31 L7,31 L7,29 L11.0717968,29 Z M28.5301166,11.5022154 L19.8660254,6.5 L19.0910253,7.84233954 L19.805183,10.6053821 L17.3915193,14.7859703 L13.2749996,15.9159915 L13,16.3923048 L23.3923048,22.3923048 L23.6673045,21.9159915 L22.5871219,17.7869227 L25.0030884,13.6023459 L27.7551165,12.8445549 L28.5301166,11.5022154 Z"/>
</svg>
