<svg aria-hidden="true" xmlns="http://www.w3.org/2000/svg" width="36" height="36" viewBox="0 0 36 36"><g fill-rule="evenodd"><path d="M18,5 C10.832,5 5,10.832 5,18 C5,25.168 10.832,31 18,31 C25.168,31 31,25.168 31,18 C31,10.832 25.168,5 18,5 M18,33 C9.729,33 3,26.271 3,18 C3,9.729 9.729,3 18,3 C26.271,3 33,9.729 33,18 C33,26.271 26.271,33 18,33"/><path d="M14 14.5C14 15.328 13.328 16 12.5 16 11.672 16 11 15.328 11 14.5 11 13.672 11.672 13 12.5 13 13.328 13 14 13.672 14 14.5M26 14.5C26 15.328 25.328 16 24.5 16 23.672 16 23 15.328 23 14.5 23 13.672 23.672 13 24.5 13 25.328 13 26 13.672 26 14.5M18.5 27C17.3070355 27 16.1150932 26.7818527 14.9793746 26.345558 12.7089597 25.4729687 10.940469 23.8321214 10 21.725577L11.8891161 21C12.6210463 22.6380019 13.9959711 23.914638 15.7613951 24.5927917 19.4098016 25.9955738 23.6010222 24.3822321 25.1108839 21L27 21.725577C26.059531 23.8321214 24.2910403 25.4729687 22.0206254 26.345558 20.885929 26.7818527 19.6929645 27 18.5 27"/></g></svg>
