<?xml version="1.0" encoding="UTF-8"?>
<svg width="420px" height="160px" viewBox="0 0 420 160" version="1.1" xmlns="http://www.w3.org/2000/svg" xmlns:xlink="http://www.w3.org/1999/xlink">
    <title>Guillotina</title>
    <desc>REST Resource Database</desc>
    <defs></defs>
    <g id="Page-1" stroke="none" stroke-width="1" fill="none" fill-rule="evenodd">
        <g id="guillotina-logo-horizontal--claim">
            <g id="Group-10" transform="translate(30.000000, 30.000000)">
                <g id="Group-4" fill="#FF4400">
                    <g id="Group-3">
                        <g id="Page-1">
                            <polygon id="Fill-1" points="90 54.74665 90 90.00015 10 90.00015 10 76.18215 0 78.86215 0 100.00015 100 100.00015 100 52.06715"></polygon>
                            <path d="M0,0.0001 L0,68.5096 L100,41.7791 L100,0.0001 L0,0.0001 Z M10,10.0001 L90,10.0001 L90,34.1056 L10,55.5416 L10,10.0001 Z" id="Fill-2"></path>
                        </g>
                        <circle id="Oval" cx="75" cy="75" r="6"></circle>
                        <circle id="Oval" cx="55" cy="75" r="6"></circle>
                    </g>
                </g>
                <g id="Group-2" transform="translate(129.000000, 20.000000)" fill="#242424">
                    <g id="Page-1">
                        <path d="M18.5447,19.5118491 L36.0497,19.5118491 C36.0497,21.3231698 35.9747,22.9692075 35.8247,24.4484528 C35.6747,25.9269434 35.3747,27.3005283 34.9247,28.5684528 C34.2947,30.3503396 33.4397,31.9276981 32.3597,33.301283 C31.2797,34.6748679 30.0122,35.8220377 28.5572,36.7420377 C27.1022,37.6635472 25.50395,38.3646792 23.76545,38.8476981 C22.02545,39.330717 20.19395,39.5722264 18.27545,39.5722264 C15.6347,39.5722264 13.2272,39.1344906 11.0522,38.2590189 C8.87645,37.3843019 7.00895,36.1541132 5.4497,34.5684528 C3.8897,32.9835472 2.6747,31.0816604 1.8047,28.8635472 C0.9347,26.6439245 0.4997,24.1918491 0.4997,21.5050566 C0.4997,18.8484528 0.9272,16.410717 1.7822,14.1910943 C2.6372,11.9722264 3.8522,10.0778868 5.4272,8.50807547 C7.0022,6.93901887 8.8997,5.71637736 11.1197,4.84090566 C13.34045,3.96467925 15.81395,3.5269434 18.5447,3.5269434 C22.0847,3.5269434 25.18895,4.29675472 27.8597,5.83713208 C30.5297,7.376 32.6447,9.76090566 34.20545,12.9910943 L25.83545,16.4778868 C25.0547,14.6061887 24.0422,13.2635472 22.7972,12.4484528 C21.5522,11.6333585 20.1347,11.2258113 18.5447,11.2258113 C17.2247,11.2258113 16.02545,11.4741132 14.9447,11.9722264 C13.8647,12.4703396 12.9422,13.1805283 12.1772,14.1005283 C11.4122,15.0220377 10.81145,16.1314717 10.3772,17.4288302 C9.94145,18.7276981 9.7247,20.1767547 9.7247,21.776 C9.7247,23.2250566 9.9122,24.5692075 10.2872,25.8061887 C10.6622,27.0439245 11.2247,28.1156226 11.9747,29.021283 C12.7247,29.9276981 13.6547,30.6288302 14.76545,31.1276981 C15.87395,31.6258113 17.1647,31.8748679 18.6347,31.8748679 C19.50395,31.8748679 20.3447,31.7767547 21.1547,31.5797736 C21.96545,31.3835472 22.69145,31.0673208 23.33795,30.6288302 C23.9822,30.1910943 24.51395,29.6250566 24.9347,28.930717 C25.3547,28.2371321 25.63895,27.3910943 25.7897,26.3948679 L18.5447,26.3948679 L18.5447,19.5118491 Z" id="Fill-1"></path>
                        <path d="M49.009025,15.3918491 L49.009025,28.4786415 C49.009025,31.3473208 50.389025,32.7797736 53.149775,32.7797736 C55.909025,32.7797736 57.289775,31.3473208 57.289775,28.4786415 L57.289775,15.3918491 L65.434025,15.3918491 L65.434025,30.0627925 C65.434025,33.2031698 64.405775,35.5578868 62.352275,37.1269434 C60.297275,38.6967547 57.229025,39.4824151 53.149775,39.4824151 C49.069025,39.4824151 46.001525,38.6967547 43.946525,37.1269434 C41.891525,35.5578868 40.864775,33.2031698 40.864775,30.0627925 L40.864775,15.3918491 L49.009025,15.3918491 Z" id="Fill-4"></path>
                        <path d="M70.429475,6.47086792 C70.429475,5.83690566 70.547975,5.24067925 70.788725,4.68143396 C71.028725,4.12445283 71.357975,3.63313208 71.778725,3.21049057 C72.198725,2.78784906 72.686225,2.45577358 73.241975,2.21350943 C73.796225,1.97275472 74.388725,1.85124528 75.018725,1.85124528 C75.648725,1.85124528 76.241225,1.97275472 76.796975,2.21350943 C77.351225,2.45577358 77.838725,2.78784906 78.258725,3.21049057 C78.678725,3.63313208 79.008725,4.12445283 79.249475,4.68143396 C79.488725,5.24067925 79.609475,5.83690566 79.609475,6.47086792 C79.609475,7.10483019 79.488725,7.7010566 79.249475,8.25879245 C79.008725,8.81803774 78.678725,9.30860377 78.258725,9.73124528 C77.838725,10.1546415 77.351225,10.4859623 76.796975,10.7274717 C76.241225,10.9697358 75.648725,11.0889811 75.018725,11.0889811 C74.388725,11.0889811 73.796225,10.9697358 73.241975,10.7274717 C72.686225,10.4859623 72.198725,10.1546415 71.778725,9.73124528 C71.357975,9.30860377 71.028725,8.81803774 70.788725,8.25879245 C70.547975,7.7010566 70.429475,7.10483019 70.429475,6.47086792" id="Fill-6"></path>
                        <path d="M119.8379,26.8932075 C119.8379,27.6781132 119.97965,28.3950943 120.26465,29.0449057 C120.5504,29.6932075 120.92465,30.2592453 121.38965,30.7430189 C121.8554,31.225283 122.40965,31.6026415 123.0554,31.8750943 C123.69965,32.1460377 124.3829,32.2818868 125.10365,32.2818868 C125.82215,32.2818868 126.5054,32.1460377 127.1504,31.8750943 C127.7954,31.6026415 128.3504,31.225283 128.8154,30.7430189 C129.2804,30.2592453 129.65465,29.6932075 129.9404,29.0449057 C130.2254,28.3950943 130.3679,27.6939623 130.3679,26.9384906 C130.3679,26.214717 130.2254,25.5271698 129.9404,24.8781132 C129.65465,24.2290566 129.2804,23.6630189 128.8154,23.18 C128.3504,22.6969811 127.7954,22.3196226 127.1504,22.0479245 C126.5054,21.7762264 125.82215,21.6403774 125.10365,21.6403774 C124.3829,21.6403774 123.69965,21.7762264 123.0554,22.0479245 C122.40965,22.3196226 121.8554,22.6969811 121.38965,23.18 C120.92465,23.6630189 120.5504,24.2215094 120.26465,24.8554717 C119.97965,25.489434 119.8379,26.1686792 119.8379,26.8932075 M111.2429,26.8026415 C111.2429,25.0826415 111.58715,23.4743396 112.2779,21.98 C112.9679,20.4864151 113.9279,19.1875472 115.15865,18.0856604 C116.38715,16.9837736 117.8504,16.1158491 119.5454,15.4818868 C121.2404,14.8479245 123.0929,14.5309434 125.10365,14.5309434 C127.0829,14.5309434 128.9204,14.8403774 130.6154,15.46 C132.3104,16.0788679 133.7804,16.9392453 135.0254,18.0411321 C136.26965,19.1422642 137.23715,20.4562264 137.9279,21.98 C138.6179,23.505283 138.9629,25.1883019 138.9629,27.0298113 C138.9629,28.870566 138.60965,30.5543396 137.9054,32.0781132 C137.19965,33.6026415 136.2329,34.9158491 135.0029,36.0177358 C133.77215,37.1203774 132.2954,37.9732075 130.5704,38.5754717 C128.84465,39.18 126.9779,39.4826415 124.9679,39.4826415 C122.9879,39.4826415 121.1579,39.18 119.47865,38.5754717 C117.79715,37.9732075 116.35115,37.1120755 115.13465,35.9950943 C113.9204,34.8788679 112.9679,33.5430189 112.2779,31.9875472 C111.58715,30.4328302 111.2429,28.7037736 111.2429,26.8026415" id="Fill-8"></path>
                        <polygon id="Fill-10" points="152.86715 22.2285283 152.86715 38.6217358 144.72215 38.6217358 144.72215 22.2285283 142.02215 22.2285283 142.02215 15.3915472 144.72215 15.3915472 144.72215 8.41796226 152.86715 8.41796226 152.86715 15.3915472 157.5029 15.3915472 157.5029 22.2285283"></polygon>
                        <path d="M161.19125,38.6213585 L169.33625,38.6213585 L169.33625,15.3919245 L161.19125,15.3919245 L161.19125,38.6213585 Z M160.65125,6.47116981 C160.65125,5.83720755 160.7705,5.24098113 161.01125,4.68173585 C161.25125,4.124 161.5805,3.63343396 162.00125,3.21003774 C162.422,2.78815094 162.908,2.45532075 163.46375,2.21381132 C164.018,1.9730566 164.61125,1.85154717 165.24125,1.85154717 C165.87125,1.85154717 166.463,1.9730566 167.01875,2.21381132 C167.57375,2.45532075 168.06125,2.78815094 168.482,3.21003774 C168.9005,3.63343396 169.23125,4.124 169.47125,4.68173585 C169.7105,5.24098113 169.83125,5.83720755 169.83125,6.47116981 C169.83125,7.10437736 169.7105,7.70135849 169.47125,8.25909434 C169.23125,8.81833962 168.9005,9.30815094 168.482,9.73154717 C168.06125,10.1541887 167.57375,10.4862642 167.01875,10.7270189 C166.463,10.9700377 165.87125,11.089283 165.24125,11.089283 C164.61125,11.089283 164.018,10.9700377 163.46375,10.7270189 C162.908,10.4862642 162.422,10.1541887 162.00125,9.73154717 C161.5805,9.30815094 161.25125,8.81833962 161.01125,8.25909434 C160.7705,7.70135849 160.65125,7.10437736 160.65125,6.47116981 L160.65125,6.47116981 Z" id="Fill-12"></path>
                        <path d="M174.916775,15.3918491 L183.061025,15.3918491 L183.061025,18.3344906 C184.171025,16.9767547 185.296025,16.0643019 186.436025,15.5956226 C187.576025,15.1269434 188.911025,14.8937358 190.441025,14.8937358 C192.061025,14.8937358 193.448525,15.1571321 194.604275,15.685434 C195.758525,16.2144906 196.741775,16.9616604 197.551775,17.9269434 C198.211025,18.7126038 198.660275,19.5880755 198.901025,20.5541132 C199.141025,21.5201509 199.261025,22.6220377 199.261025,23.8590189 L199.261025,38.621283 L191.116775,38.621283 L191.116775,26.8929811 C191.116775,25.746566 191.032775,24.8182642 190.869275,24.1080755 C190.703525,23.3986415 190.411025,22.8326038 189.991775,22.4099623 C189.631025,22.0476981 189.226025,21.7918491 188.776025,21.6401509 C188.326025,21.4899623 187.845275,21.4137358 187.336025,21.4137358 C185.956025,21.4137358 184.898525,21.8288302 184.163525,22.6590189 C183.428525,23.4899623 183.061025,24.6741132 183.061025,26.2144906 L183.061025,38.621283 L174.916775,38.621283 L174.916775,15.3918491 Z" id="Fill-14"></path>
                        <path d="M212.3552,26.9381887 C212.3552,27.6936604 212.4902,28.3955472 212.7602,29.0446038 C213.0302,29.6929057 213.3977,30.2589434 213.8627,30.742717 C214.3277,31.2257358 214.88195,31.6030943 215.5277,31.8747925 C216.1727,32.1457358 216.8702,32.2815849 217.6202,32.2815849 C218.3402,32.2815849 219.0227,32.1457358 219.6677,31.8747925 C220.31195,31.6030943 220.8677,31.2257358 221.33345,30.742717 C221.7977,30.2589434 222.1727,29.7004528 222.45845,29.0664906 C222.7427,28.4325283 222.8852,27.753283 222.8852,27.0295094 C222.8852,26.3042264 222.7427,25.6181887 222.45845,24.9691321 C222.1727,24.3200755 221.7977,23.7540377 221.33345,23.2710189 C220.8677,22.788 220.31195,22.4098868 219.6677,22.1389434 C219.0227,21.8664906 218.3402,21.7313962 217.6202,21.7313962 C216.8702,21.7313962 216.1727,21.8664906 215.5277,22.1389434 C214.88195,22.4098868 214.3277,22.788 213.8627,23.2710189 C213.3977,23.7540377 213.0302,24.3057358 212.7602,24.9230943 C212.4902,25.5419623 212.3552,26.2144151 212.3552,26.9381887 L212.3552,26.9381887 Z M222.6152,15.3917736 L230.8052,15.3917736 L230.8052,38.6212075 L222.6152,38.6212075 L222.6152,36.0408302 C220.87445,38.2438491 218.52095,39.3457358 215.5502,39.3457358 C213.8702,39.3457358 212.3252,39.0355472 210.9152,38.4181887 C209.50445,37.7993208 208.27595,36.9306415 207.2252,35.8136604 C206.1752,34.697434 205.3577,33.3842264 204.77345,31.8747925 C204.1877,30.3653585 203.89595,28.7200755 203.89595,26.9381887 C203.89595,25.278566 204.1802,23.7012075 204.7502,22.2061132 C205.31945,20.7117736 206.1152,19.4068679 207.1352,18.2898868 C208.15445,17.1729057 209.3702,16.2898868 210.7802,15.6400755 C212.18945,14.9917736 213.7502,14.6664906 215.46095,14.6664906 C218.3402,14.6664906 220.7252,15.678566 222.6152,17.7004528 L222.6152,15.3917736 Z" id="Fill-15"></path>
                        <polygon id="Fill-16" points="84.6941 5.89667925 84.6941 38.6212075 92.83835 38.6212075 92.83835 3.70045283"></polygon>
                        <polygon id="Fill-17" points="98.4182 2.19622642 98.4182 38.6218868 106.5632 38.6218868 106.5632 0"></polygon>
                        <polygon id="Fill-18" points="70.96925 17.4209057 70.96925 38.6216604 79.11425 38.6216604 79.11425 15.3922264 78.494 15.3922264"></polygon>
                    </g>
                </g>
            </g>
            <path d="M163.82251,109.297852 L163.82251,113.392334 L164.83667,113.392334 C165.775151,113.392334 166.429808,113.24223 166.800659,112.942017 C167.171511,112.641804 167.356934,112.130944 167.356934,111.409424 C167.356934,110.647539 167.165204,110.105145 166.781738,109.782227 C166.398273,109.459308 165.749923,109.297852 164.83667,109.297852 L163.82251,109.297852 Z M169.544189,119.5 L168.318115,119.5 L164.427979,114.217285 L163.82251,114.217285 L163.82251,119.5 L162.815918,119.5 L162.815918,108.419922 L164.851807,108.419922 C166.052659,108.419922 166.952023,108.669675 167.549927,109.169189 C168.14783,109.668704 168.446777,110.425532 168.446777,111.439697 C168.446777,112.302495 168.190717,112.981117 167.678589,113.475586 C167.166461,113.970055 166.461349,114.217285 165.563232,114.217285 L169.544189,119.5 Z M172.997314,119.5 L172.997314,108.419922 L178.484375,108.419922 L178.484375,109.365967 L174.003906,109.365967 L174.003906,112.832275 L178.484375,112.832275 L178.484375,113.77832 L174.003906,113.77832 L174.003906,118.553955 L178.484375,118.553955 L178.484375,119.5 L172.997314,119.5 Z M182.104004,117.638184 L182.966797,117.176514 C183.128256,117.721438 183.407021,118.144001 183.803101,118.444214 C184.19918,118.744427 184.674721,118.894531 185.229736,118.894531 C185.931074,118.894531 186.478514,118.687665 186.87207,118.273926 C187.265627,117.860187 187.462402,117.28752 187.462402,116.555908 C187.462402,116.021075 187.329957,115.577069 187.065063,115.223877 C186.80017,114.870685 186.231287,114.461998 185.358398,113.997803 C184.243321,113.407468 183.501629,112.887779 183.133301,112.438721 C182.764972,111.989662 182.580811,111.449792 182.580811,110.819092 C182.580811,110.031978 182.846962,109.391197 183.379272,108.896729 C183.911583,108.40226 184.601558,108.155029 185.449219,108.155029 C186.004235,108.155029 186.487343,108.272338 186.89856,108.506958 C187.309776,108.741578 187.644042,109.093504 187.901367,109.562744 L187.121826,110.031982 C186.960367,109.71411 186.732057,109.471925 186.43689,109.30542 C186.141722,109.138915 185.79232,109.055664 185.388672,109.055664 C184.843747,109.055664 184.409832,109.215859 184.086914,109.536255 C183.763996,109.85665 183.602539,110.289304 183.602539,110.834229 C183.602539,111.611251 184.24332,112.335283 185.524902,113.006348 C185.757,113.127442 185.933593,113.220784 186.054688,113.286377 C186.998214,113.806074 187.628905,114.296751 187.946777,114.758423 C188.26465,115.220095 188.423584,115.819251 188.423584,116.555908 C188.423584,117.549891 188.133466,118.338254 187.553223,118.921021 C186.972979,119.503787 186.183355,119.795166 185.184326,119.795166 C184.45776,119.795166 183.835899,119.614789 183.318726,119.254028 C182.801552,118.893268 182.396649,118.354659 182.104004,117.638184 L182.104004,117.638184 Z M194.63916,119.5 L194.63916,109.365967 L191.589111,109.365967 L191.589111,108.419922 L198.703369,108.419922 L198.703369,109.365967 L195.645752,109.365967 L195.645752,119.5 L194.63916,119.5 Z M209.8479,109.297852 L209.8479,113.392334 L210.862061,113.392334 C211.800542,113.392334 212.455198,113.24223 212.82605,112.942017 C213.196901,112.641804 213.382324,112.130944 213.382324,111.409424 C213.382324,110.647539 213.190594,110.105145 212.807129,109.782227 C212.423663,109.459308 211.775314,109.297852 210.862061,109.297852 L209.8479,109.297852 Z M215.56958,119.5 L214.343506,119.5 L210.453369,114.217285 L209.8479,114.217285 L209.8479,119.5 L208.841309,119.5 L208.841309,108.419922 L210.877197,108.419922 C212.07805,108.419922 212.977414,108.669675 213.575317,109.169189 C214.173221,109.668704 214.472168,110.425532 214.472168,111.439697 C214.472168,112.302495 214.216108,112.981117 213.703979,113.475586 C213.191851,113.970055 212.48674,114.217285 211.588623,114.217285 L215.56958,119.5 Z M219.022705,119.5 L219.022705,108.419922 L224.509766,108.419922 L224.509766,109.365967 L220.029297,109.365967 L220.029297,112.832275 L224.509766,112.832275 L224.509766,113.77832 L220.029297,113.77832 L220.029297,118.553955 L224.509766,118.553955 L224.509766,119.5 L219.022705,119.5 Z M228.129395,117.638184 L228.992188,117.176514 C229.153647,117.721438 229.432412,118.144001 229.828491,118.444214 C230.224571,118.744427 230.700111,118.894531 231.255127,118.894531 C231.956465,118.894531 232.503904,118.687665 232.897461,118.273926 C233.291018,117.860187 233.487793,117.28752 233.487793,116.555908 C233.487793,116.021075 233.355348,115.577069 233.090454,115.223877 C232.82556,114.870685 232.256678,114.461998 231.383789,113.997803 C230.268712,113.407468 229.52702,112.887779 229.158691,112.438721 C228.790363,111.989662 228.606201,111.449792 228.606201,110.819092 C228.606201,110.031978 228.872352,109.391197 229.404663,108.896729 C229.936974,108.40226 230.626949,108.155029 231.474609,108.155029 C232.029625,108.155029 232.512734,108.272338 232.92395,108.506958 C233.335166,108.741578 233.669432,109.093504 233.926758,109.562744 L233.147217,110.031982 C232.985758,109.71411 232.757448,109.471925 232.46228,109.30542 C232.167113,109.138915 231.81771,109.055664 231.414062,109.055664 C230.869138,109.055664 230.435223,109.215859 230.112305,109.536255 C229.789386,109.85665 229.62793,110.289304 229.62793,110.834229 C229.62793,111.611251 230.268711,112.335283 231.550293,113.006348 C231.78239,113.127442 231.958984,113.220784 232.080078,113.286377 C233.023605,113.806074 233.654295,114.296751 233.972168,114.758423 C234.290041,115.220095 234.448975,115.819251 234.448975,116.555908 C234.448975,117.549891 234.158857,118.338254 233.578613,118.921021 C232.998369,119.503787 232.208745,119.795166 231.209717,119.795166 C230.483151,119.795166 229.86129,119.614789 229.344116,119.254028 C228.826942,118.893268 228.422039,118.354659 228.129395,117.638184 L228.129395,117.638184 Z M244.093018,118.894531 C244.748945,118.894531 245.369545,118.773439 245.954834,118.53125 C246.540123,118.289061 247.06738,117.935875 247.536621,117.47168 C247.995771,117.002439 248.347696,116.468875 248.592407,115.870972 C248.837119,115.273068 248.959473,114.643639 248.959473,113.982666 C248.959473,113.316647 248.83838,112.687218 248.596191,112.09436 C248.354003,111.501503 248.000816,110.967939 247.536621,110.493652 C247.077472,110.029457 246.553999,109.676271 245.966187,109.434082 C245.378374,109.191893 244.753991,109.070801 244.093018,109.070801 C243.43709,109.070801 242.819013,109.191893 242.23877,109.434082 C241.658526,109.676271 241.133791,110.029457 240.664551,110.493652 C240.200356,110.972984 239.847169,111.506548 239.60498,112.09436 C239.362792,112.682173 239.241699,113.311601 239.241699,113.982666 C239.241699,114.648685 239.362792,115.278114 239.60498,115.870972 C239.847169,116.463829 240.200356,116.997393 240.664551,117.47168 C241.128746,117.94092 241.648435,118.295368 242.223633,118.535034 C242.798831,118.7747 243.421953,118.894531 244.093018,118.894531 L244.093018,118.894531 Z M250.026611,113.982666 C250.026611,114.764734 249.877768,115.507687 249.580078,116.211548 C249.282388,116.915409 248.853518,117.542315 248.293457,118.092285 C247.723304,118.647301 247.08,119.069863 246.363525,119.359985 C245.64705,119.650107 244.890222,119.795166 244.093018,119.795166 C243.295813,119.795166 242.540246,119.650107 241.826294,119.359985 C241.112342,119.069863 240.472822,118.647301 239.907715,118.092285 C239.342608,117.532224 238.912477,116.902795 238.61731,116.203979 C238.322142,115.505164 238.174561,114.764734 238.174561,113.982666 C238.174561,113.190507 238.322142,112.442508 238.61731,111.738647 C238.912477,111.034787 239.342608,110.402835 239.907715,109.842773 C240.462731,109.292803 241.095944,108.876548 241.807373,108.593994 C242.518802,108.311441 243.280676,108.170166 244.093018,108.170166 C244.910404,108.170166 245.676063,108.312702 246.390015,108.597778 C247.103967,108.882855 247.738441,109.297849 248.293457,109.842773 C248.858564,110.402835 249.288695,111.034787 249.583862,111.738647 C249.87903,112.442508 250.026611,113.190507 250.026611,113.982666 L250.026611,113.982666 Z M254.213867,108.419922 L255.205322,108.419922 L255.205322,115.655273 C255.205322,116.750168 255.455076,117.563759 255.95459,118.096069 C256.454104,118.62838 257.218501,118.894531 258.247803,118.894531 C259.261968,118.894531 260.018796,118.62838 260.518311,118.096069 C261.017825,117.563759 261.267578,116.750168 261.267578,115.655273 L261.267578,108.419922 L262.27417,108.419922 L262.27417,115.329834 C262.27417,116.828377 261.941165,117.947221 261.275146,118.686401 C260.609128,119.425581 259.600023,119.795166 258.247803,119.795166 C256.890537,119.795166 255.87891,119.425581 255.212891,118.686401 C254.546872,117.947221 254.213867,116.828377 254.213867,115.329834 L254.213867,108.419922 Z M267.990234,109.297852 L267.990234,113.392334 L269.004395,113.392334 C269.942876,113.392334 270.597532,113.24223 270.968384,112.942017 C271.339235,112.641804 271.524658,112.130944 271.524658,111.409424 C271.524658,110.647539 271.332928,110.105145 270.949463,109.782227 C270.565997,109.459308 269.917648,109.297852 269.004395,109.297852 L267.990234,109.297852 Z M273.711914,119.5 L272.48584,119.5 L268.595703,114.217285 L267.990234,114.217285 L267.990234,119.5 L266.983643,119.5 L266.983643,108.419922 L269.019531,108.419922 C270.220384,108.419922 271.119748,108.669675 271.717651,109.169189 C272.315555,109.668704 272.614502,110.425532 272.614502,111.439697 C272.614502,112.302495 272.358442,112.981117 271.846313,113.475586 C271.334185,113.970055 270.629074,114.217285 269.730957,114.217285 L273.711914,119.5 Z M286.06543,110.448242 C285.515459,109.973956 284.952884,109.623292 284.377686,109.39624 C283.802487,109.169188 283.197025,109.055664 282.561279,109.055664 C281.128329,109.055664 279.964075,109.509761 279.068481,110.417969 C278.172888,111.326176 277.725098,112.509351 277.725098,113.967529 C277.725098,114.699141 277.834838,115.357582 278.054321,115.942871 C278.273805,116.52816 278.608071,117.047849 279.057129,117.501953 C279.501142,117.945966 280.009478,118.284016 280.582153,118.516113 C281.154829,118.748211 281.769121,118.864258 282.425049,118.864258 C283.060794,118.864258 283.681393,118.755779 284.286865,118.538818 C284.892337,118.321858 285.465004,118.001467 286.004883,117.577637 L286.004883,118.758301 C285.459958,119.09131 284.883507,119.347371 284.275513,119.526489 C283.667518,119.705608 283.06584,119.795166 282.470459,119.795166 C281.668209,119.795166 280.901289,119.651369 280.169678,119.36377 C279.438066,119.07617 278.809898,118.672529 278.285156,118.152832 C277.745277,117.617999 277.33659,116.997399 277.059082,116.291016 C276.781574,115.584632 276.642822,114.810144 276.642822,113.967529 C276.642822,113.140051 276.785358,112.368086 277.070435,111.651611 C277.355511,110.935136 277.76546,110.31706 278.300293,109.797363 C278.81999,109.287758 279.446896,108.889162 280.18103,108.601562 C280.915165,108.313963 281.6783,108.170166 282.470459,108.170166 C283.176843,108.170166 283.831499,108.267292 284.434448,108.461548 C285.037397,108.655803 285.586098,108.947182 286.080566,109.335693 L286.06543,110.448242 Z M290.245117,119.5 L290.245117,108.419922 L295.732178,108.419922 L295.732178,109.365967 L291.251709,109.365967 L291.251709,112.832275 L295.732178,112.832275 L295.732178,113.77832 L291.251709,113.77832 L291.251709,118.553955 L295.732178,118.553955 L295.732178,119.5 L290.245117,119.5 Z M307.671387,118.629639 L309.08667,118.629639 C310.232021,118.629639 311.04435,118.565308 311.523682,118.436646 C312.003013,118.307983 312.409178,118.089764 312.742188,117.781982 C313.206383,117.348061 313.557046,116.80819 313.794189,116.162354 C314.031333,115.516517 314.149902,114.779871 314.149902,113.952393 C314.149902,113.104732 314.030071,112.357995 313.790405,111.712158 C313.550739,111.066322 313.196291,110.536542 312.727051,110.122803 C312.373859,109.80493 311.942467,109.580404 311.432861,109.449219 C310.923256,109.318033 310.032721,109.252441 308.76123,109.252441 L308.572021,109.252441 L307.671387,109.252441 L307.671387,118.629639 Z M306.664795,119.5 L306.664795,108.419922 L308.390381,108.419922 C309.929288,108.419922 311.021644,108.495605 311.66748,108.646973 C312.313317,108.798341 312.868325,109.058185 313.33252,109.426514 C313.948083,109.915937 314.417316,110.546627 314.740234,111.318604 C315.063153,112.09058 315.224609,112.973546 315.224609,113.967529 C315.224609,114.961512 315.063153,115.84574 314.740234,116.620239 C314.417316,117.394739 313.953128,118.014076 313.347656,118.478271 C312.868324,118.8466 312.320885,119.108967 311.705322,119.265381 C311.089759,119.421794 310.098314,119.5 308.730957,119.5 L308.390381,119.5 L306.664795,119.5 Z M320.509277,114.883301 L324.369141,114.883301 L322.477051,110.062256 L320.509277,114.883301 Z M317.678711,119.5 L322.545166,107.980957 L327.207275,119.5 L326.109863,119.5 L324.69458,115.746094 L320.168701,115.746094 L318.700439,119.5 L317.678711,119.5 Z M331.568604,119.5 L331.568604,109.365967 L328.518555,109.365967 L328.518555,108.419922 L335.632812,108.419922 L335.632812,109.365967 L332.575195,109.365967 L332.575195,119.5 L331.568604,119.5 Z M339.494629,114.883301 L343.354492,114.883301 L341.462402,110.062256 L339.494629,114.883301 Z M336.664062,119.5 L341.530518,107.980957 L346.192627,119.5 L345.095215,119.5 L343.679932,115.746094 L339.154053,115.746094 L337.685791,119.5 L336.664062,119.5 Z M350.44043,113.346924 L351.696777,113.346924 C352.620122,113.346924 353.272256,113.195558 353.653198,112.892822 C354.034141,112.590086 354.224609,112.085534 354.224609,111.37915 C354.224609,110.617265 354.039186,110.079917 353.668335,109.76709 C353.297483,109.454263 352.640304,109.297852 351.696777,109.297852 L350.44043,109.297852 L350.44043,113.346924 Z M350.44043,118.629639 L351.727051,118.629639 C352.458663,118.629639 352.963215,118.599366 353.240723,118.538818 C353.518231,118.478271 353.752847,118.374838 353.94458,118.228516 C354.181723,118.046874 354.37093,117.795859 354.512207,117.475464 C354.653484,117.155068 354.724121,116.813234 354.724121,116.449951 C354.724121,116.005939 354.645915,115.616172 354.489502,115.28064 C354.333088,114.945107 354.116131,114.694093 353.838623,114.527588 C353.64689,114.416585 353.421103,114.337118 353.161255,114.289185 C352.901407,114.241251 352.496503,114.217285 351.946533,114.217285 L351.727051,114.217285 L350.44043,114.217285 L350.44043,118.629639 Z M349.433838,119.5 L349.433838,108.419922 L351.356201,108.419922 C352.198816,108.419922 352.806802,108.460286 353.180176,108.541016 C353.55355,108.621745 353.871418,108.760497 354.133789,108.957275 C354.502118,109.234783 354.782144,109.574095 354.973877,109.97522 C355.16561,110.376345 355.261475,110.819089 355.261475,111.303467 C355.261475,111.893802 355.107586,112.395831 354.799805,112.80957 C354.492023,113.223309 354.068199,113.495768 353.52832,113.626953 C354.23975,113.732911 354.79728,114.017983 355.200928,114.482178 C355.604576,114.946373 355.806396,115.534176 355.806396,116.245605 C355.806396,116.765302 355.728191,117.226967 355.571777,117.630615 C355.415364,118.034263 355.178224,118.382404 354.860352,118.675049 C354.537433,118.977785 354.148928,119.190958 353.694824,119.314575 C353.24072,119.438192 352.466233,119.5 351.371338,119.5 L349.433838,119.5 Z M361.325684,114.883301 L365.185547,114.883301 L363.293457,110.062256 L361.325684,114.883301 Z M358.495117,119.5 L363.361572,107.980957 L368.023682,119.5 L366.92627,119.5 L365.510986,115.746094 L360.985107,115.746094 L359.516846,119.5 L358.495117,119.5 Z M370.417236,117.638184 L371.280029,117.176514 C371.441488,117.721438 371.720254,118.144001 372.116333,118.444214 C372.512412,118.744427 372.987953,118.894531 373.542969,118.894531 C374.244307,118.894531 374.791746,118.687665 375.185303,118.273926 C375.578859,117.860187 375.775635,117.28752 375.775635,116.555908 C375.775635,116.021075 375.64319,115.577069 375.378296,115.223877 C375.113402,114.870685 374.544519,114.461998 373.671631,113.997803 C372.556554,113.407468 371.814862,112.887779 371.446533,112.438721 C371.078205,111.989662 370.894043,111.449792 370.894043,110.819092 C370.894043,110.031978 371.160194,109.391197 371.692505,108.896729 C372.224815,108.40226 372.914791,108.155029 373.762451,108.155029 C374.317467,108.155029 374.800576,108.272338 375.211792,108.506958 C375.623008,108.741578 375.957274,109.093504 376.2146,109.562744 L375.435059,110.031982 C375.273599,109.71411 375.04529,109.471925 374.750122,109.30542 C374.454955,109.138915 374.105552,109.055664 373.701904,109.055664 C373.15698,109.055664 372.723065,109.215859 372.400146,109.536255 C372.077228,109.85665 371.915771,110.289304 371.915771,110.834229 C371.915771,111.611251 372.556553,112.335283 373.838135,113.006348 C374.070232,113.127442 374.246826,113.220784 374.36792,113.286377 C375.311447,113.806074 375.942137,114.296751 376.26001,114.758423 C376.577882,115.220095 376.736816,115.819251 376.736816,116.555908 C376.736816,117.549891 376.446699,118.338254 375.866455,118.921021 C375.286211,119.503787 374.496587,119.795166 373.497559,119.795166 C372.770992,119.795166 372.149132,119.614789 371.631958,119.254028 C371.114784,118.893268 370.709881,118.354659 370.417236,117.638184 L370.417236,117.638184 Z M380.984619,119.5 L380.984619,108.419922 L386.47168,108.419922 L386.47168,109.365967 L381.991211,109.365967 L381.991211,112.832275 L386.47168,112.832275 L386.47168,113.77832 L381.991211,113.77832 L381.991211,118.553955 L386.47168,118.553955 L386.47168,119.5 L380.984619,119.5 Z" id="REST-RESOURCE-DATABA" fill="#6C8487"></path>
        </g>
    </g>
</svg>