<svg xmlns="http://www.w3.org/2000/svg" width="36" height="36" viewBox="0 0 36 36">
  <g fill="none" fill-rule="evenodd">
    <path fill="#000" d="M18,29 C13.038,29 9,24.963 9,20 C9,18.705 9.278,17.444 9.827,16.251 C10.725,14.296 12.296,12.725 14.25,11.826 L13.833,10.918 L14.251,11.826 C16.636,10.73 19.364,10.73 21.749,11.826 L22.167,10.918 L21.75,11.826 C23.704,12.725 25.275,14.296 26.173,16.251 C26.722,17.444 27,18.705 27,20 C27,24.963 22.962,29 18,29 M27.991,15.415 C26.893,13.026 24.973,11.107 22.585,10.01 L22.585,10.01 C21.439,9.483 20.226,9.171 19,9.058 L19,7 L21,7 L21,5 L15,5 L15,7 L17,7 L17,9.058 C15.774,9.171 14.561,9.483 13.415,10.01 L13.415,10.01 C12.42,10.467 11.512,11.074 10.705,11.791 L9.454,10.54 L8.04,11.954 L9.338,13.252 C8.819,13.917 8.366,14.638 8.009,15.415 C7.339,16.873 7,18.415 7,20 C7,26.065 11.935,31 18,31 C24.065,31 29,26.065 29,20 C29,18.415 28.661,16.873 27.991,15.415"/>
    <path fill="#000" d="M18,13 L18,15 C20.757,15 23,17.243 23,20 C23,20.996 22.711,21.947 22.172,22.758 L18.707,19.293 L17.293,20.707 L22.243,25.655 L22.949,24.949 C24.272,23.629 25,21.871 25,20 C25,16.141 21.86,13 18,13"/>
  </g>
</svg>
