<svg xmlns="http://www.w3.org/2000/svg" width="330" height="194" viewBox="0 0 330 194">
  <g fill="none" fill-rule="evenodd">
    <g transform="translate(45)">
      <g fill="#F40" transform="translate(65.5)">
        <polygon points="90 54.886 90 90.229 10 90.229 10 76.376 0 79.063 0 100.255 100 100.255 100 52.2"/>
        <path d="M0,0.000100254453 L0,68.6839247 L100,41.8854081 L100,0.000100254453 L0,0.000100254453 Z M10,10.0255455 L90,10.0255455 L90,34.1923827 L10,55.6829272 L10,10.0255455 Z"/>
        <ellipse cx="75" cy="75.191" rx="6" ry="6.015"/>
        <ellipse cx="55" cy="75.191" rx="6" ry="6.015"/>
      </g>
      <g fill="#252525" transform="translate(0 125.82)">
        <path d="M18.5447 19.5614975L36.0497 19.5614975C36.0497 21.3774272 35.9747 23.0276534 35.8247 24.5106626 35.6747 25.9929153 35.3747 27.3699953 34.9247 28.6411461 34.2947 30.4275669 33.4397 32.0089391 32.3597 33.3860191 31.2797 34.7630991 30.0122 35.913188 28.5572 36.8355289 27.1022 37.7593832 25.50395 38.4622993 23.76545 38.9465472 22.02545 39.4307951 20.19395 39.6729191 18.27545 39.6729191 15.6347 39.6729191 13.2272 39.2340694 11.0522 38.3563701 8.87645 37.4794273 7.00895 36.2461084 5.4497 34.6564133 3.8897 33.0674748 2.6747 31.1607486 1.8047 28.9369913.9347 26.7117208.4997 24.2534059.4997 21.5597768.4997 18.8964133.9272 16.4524745 1.7822 14.227204 2.6372 12.0026901 3.8522 10.1035303 5.4272 8.52972452 7.0022 6.9566754 8.8997 5.73092285 11.1197 4.85322349 13.34045 3.97476749 15.81395 3.53591781 18.5447 3.53591781 22.0847 3.53591781 25.18895 4.30768794 27.8597 5.85198483 30.5297 7.39476845 32.6447 9.78574257 34.20545 13.0241506L25.83545 16.5198153C25.0547 14.6433546 24.0422 13.2972967 22.7972 12.4801283 21.5522 11.6629599 20.1347 11.2543757 18.5447 11.2543757 17.2247 11.2543757 16.02545 11.5033094 14.9447 12.0026901 13.8647 12.5020708 12.9422 13.2140665 12.1772 14.1364075 11.4122 15.0602618 10.81145 16.1725187 10.3772 17.4731784 9.94145 18.7753513 9.7247 20.2280951 9.7247 21.8314097 9.7247 23.2841534 9.9122 24.6317246 10.2872 25.8718533 10.6622 27.1127386 11.2247 28.1871637 11.9747 29.0951285 12.7247 30.00385 13.6547 30.7067661 14.76545 31.2069035 15.87395 31.7062841 17.1647 31.9559745 18.6347 31.9559745 19.50395 31.9559745 20.3447 31.8576116 21.1547 31.6601292 21.96545 31.4634035 22.69145 31.1463725 23.33795 30.7067661 23.9822 30.2679165 24.51395 29.7004384 24.9347 29.004332 25.3547 28.3089823 25.63895 27.4607918 25.7897 26.4620304L18.5447 26.4620304 18.5447 19.5614975zM49.009025 15.4310141L49.009025 28.5511062C49.009025 31.4270849 50.389025 32.8631827 53.149775 32.8631827 55.909025 32.8631827 57.289775 31.4270849 57.289775 28.5511062L57.289775 15.4310141 65.434025 15.4310141 65.434025 30.1392881C65.434025 33.2876562 64.405775 35.6483649 62.352275 37.221414 60.297275 38.7952197 57.229025 39.5828793 53.149775 39.5828793 49.069025 39.5828793 46.001525 38.7952197 43.946525 37.221414 41.891525 35.6483649 40.864775 33.2876562 40.864775 30.1392881L40.864775 15.4310141 49.009025 15.4310141zM70.429475 6.48733324C70.429475 5.85175784 70.547975 5.25401431 70.788725 4.69334601 71.028725 4.13494762 71.357975 3.64237669 71.778725 3.21865975 72.198725 2.79494282 72.686225 2.46202237 73.241975 2.21914177 73.796225 1.97777445 74.388725 1.85595583 75.018725 1.85595583 75.648725 1.85595583 76.241225 1.97777445 76.796975 2.21914177 77.351225 2.46202237 77.838725 2.79494282 78.258725 3.21865975 78.678725 3.64237669 79.008725 4.13494762 79.249475 4.69334601 79.488725 5.25401431 79.609475 5.85175784 79.609475 6.48733324 79.609475 7.12290864 79.488725 7.72065217 79.249475 8.27980719 79.008725 8.84047549 78.678725 9.33228979 78.258725 9.75600672 77.838725 10.1804803 77.351225 10.5126441 76.796975 10.7547681 76.241225 10.9976487 75.648725 11.1171974 75.018725 11.1171974 74.388725 11.1171974 73.796225 10.9976487 73.241975 10.7547681 72.686225 10.5126441 72.198725 10.1804803 71.778725 9.75600672 71.357975 9.33228979 71.028725 8.84047549 70.788725 8.27980719 70.547975 7.72065217 70.429475 7.12290864 70.429475 6.48733324M119.8379 26.9616381C119.8379 27.748541 119.97965 28.4673465 120.26465 29.1188113 120.5504 29.7687628 120.92465 30.3362408 121.38965 30.8212454 121.8554 31.3047367 122.40965 31.6830554 123.0554 31.9562014 123.69965 32.2278343 124.3829 32.364029 125.10365 32.364029 125.82215 32.364029 126.5054 32.2278343 127.1504 31.9562014 127.7954 31.6830554 128.3504 31.3047367 128.8154 30.8212454 129.2804 30.3362408 129.65465 29.7687628 129.9404 29.1188113 130.2254 28.4673465 130.3679 27.7644304 130.3679 27.0070363 130.3679 26.2814211 130.2254 25.5921244 129.9404 24.9414163 129.65465 24.2907081 129.2804 23.7232301 128.8154 23.2389822 128.3504 22.7547343 127.7954 22.3764156 127.1504 22.1040261 126.5054 21.8316367 125.82215 21.6954419 125.10365 21.6954419 124.3829 21.6954419 123.69965 21.8316367 123.0554 22.1040261 122.40965 22.3764156 121.8554 22.7547343 121.38965 23.2389822 120.92465 23.7232301 120.5504 24.2831418 120.26465 24.9187172 119.97965 25.5542926 119.8379 26.2352662 119.8379 26.9616381M111.2429 26.8708416C111.2429 25.146465 111.58715 23.5340708 112.2779 22.0359288 112.9679 20.5385434 113.9279 19.2363704 115.15865 18.1316799 116.38715 17.0269893 117.8504 16.1568563 119.5454 15.5212809 121.2404 14.8857055 123.0929 14.5679178 125.10365 14.5679178 127.0829 14.5679178 128.9204 14.8781391 130.6154 15.4993384 132.3104 16.1197811 133.7804 16.9823477 135.0254 18.0870383 136.26965 19.1909722 137.23715 20.5082779 137.9279 22.0359288 138.6179 23.5650929 138.9629 25.2523943 138.9629 27.0985895 138.9629 28.944028 138.60965 30.632086 137.9054 32.1597369 137.19965 33.6881444 136.2329 35.0046935 135.0029 36.109384 133.77215 37.2148312 132.2954 38.0698315 130.5704 38.6736281 128.84465 39.2796947 126.9779 39.5831062 124.9679 39.5831062 122.9879 39.5831062 121.1579 39.2796947 119.47865 38.6736281 117.79715 38.0698315 116.35115 37.2065082 115.13465 36.0866849 113.9204 34.9676182 112.9679 33.6283701 112.2779 32.0689404 111.58715 30.5102674 111.2429 28.7768112 111.2429 26.8708416"/>
        <polygon points="152.867 22.285 152.867 38.72 144.722 38.72 144.722 22.285 142.022 22.285 142.022 15.431 144.722 15.431 144.722 8.439 152.867 8.439 152.867 15.431 157.503 15.431 157.503 22.285"/>
        <path d="M161.19125 38.7196317L169.33625 38.7196317 169.33625 15.4310897 161.19125 15.4310897 161.19125 38.7196317zM160.65125 6.48763589C160.65125 5.85206049 160.7705 5.25431696 161.01125 4.69364866 161.25125 4.13449364 161.5805 3.64267934 162.00125 3.21820577 162.422 2.79524548 162.908 2.46156839 163.46375 2.21944443 164.018 1.9780771 164.61125 1.85625849 165.24125 1.85625849 165.87125 1.85625849 166.463 1.9780771 167.01875 2.21944443 167.57375 2.46156839 168.06125 2.79524548 168.482 3.21820577 168.9005 3.64267934 169.23125 4.13449364 169.47125 4.69364866 169.7105 5.25431696 169.83125 5.85206049 169.83125 6.48763589 169.83125 7.12245465 169.7105 7.72095482 169.47125 8.28010985 169.23125 8.84077815 168.9005 9.33183581 168.482 9.75630938 168.06125 10.1800263 167.57375 10.5129468 167.01875 10.7543141 166.463 10.9979513 165.87125 11.1175 165.24125 11.1175 164.61125 11.1175 164.018 10.9979513 163.46375 10.7543141 162.908 10.5129468 162.422 10.1800263 162.00125 9.75630938 161.5805 9.33183581 161.25125 8.84077815 161.01125 8.28010985 160.7705 7.72095482 160.65125 7.12245465 160.65125 6.48763589L160.65125 6.48763589zM174.916775 15.4310141L183.061025 15.4310141 183.061025 18.3811432C184.171025 17.0199526 185.296025 16.105178 186.436025 15.6353062 187.576025 15.1654343 188.911025 14.9316334 190.441025 14.9316334 192.061025 14.9316334 193.448525 15.1956998 194.604275 15.725346 195.758525 16.2557488 196.741775 17.0048198 197.551775 17.972559 198.211025 18.7602185 198.660275 19.6379179 198.901025 20.6064138 199.141025 21.5749096 199.261025 22.6796002 199.261025 23.9197288L199.261025 38.719556 191.116775 38.719556 191.116775 26.9614111C191.116775 25.8120789 191.032775 24.881415 190.869275 24.1694192 190.703525 23.45818 190.411025 22.890702 189.991775 22.4669851 189.631025 22.1037991 189.226025 21.8472991 188.776025 21.6952149 188.326025 21.5446441 187.845275 21.4682237 187.336025 21.4682237 185.956025 21.4682237 184.898525 21.8843743 184.163525 22.7166754 183.428525 23.5497332 183.061025 24.7368972 183.061025 26.2811941L183.061025 38.719556 174.916775 38.719556 174.916775 15.4310141zM212.3552 27.0067337C212.3552 27.7641277 212.4902 28.4678005 212.7602 29.1185086 213.0302 29.7684601 213.3977 30.3359382 213.8627 30.8209427 214.3277 31.3051906 214.88195 31.6835093 215.5277 31.9558988 216.1727 32.2275316 216.8702 32.3637263 217.6202 32.3637263 218.3402 32.3637263 219.0227 32.2275316 219.6677 31.9558988 220.31195 31.6835093 220.8677 31.3051906 221.33345 30.8209427 221.7977 30.3359382 222.1727 29.7760265 222.45845 29.1404511 222.7427 28.5048757 222.8852 27.8239021 222.8852 27.0982868 222.8852 26.3711583 222.7427 25.6833749 222.45845 25.0326668 222.1727 24.3819586 221.7977 23.8144806 221.33345 23.3302327 220.8677 22.8459847 220.31195 22.4669094 219.6677 22.1952766 219.0227 21.9221305 218.3402 21.7866924 217.6202 21.7866924 216.8702 21.7866924 216.1727 21.9221305 215.5277 22.1952766 214.88195 22.4669094 214.3277 22.8459847 213.8627 23.3302327 213.3977 23.8144806 213.0302 24.3675825 212.7602 24.9865119 212.4902 25.6069545 212.3552 26.2811184 212.3552 27.0067337L212.3552 27.0067337zM222.6152 15.4309384L230.8052 15.4309384 230.8052 38.7194803 222.6152 38.7194803 222.6152 36.1325371C220.87445 38.3411616 218.52095 39.4458522 215.5502 39.4458522 213.8702 39.4458522 212.3252 39.1348743 210.9152 38.5159449 209.50445 37.8955022 208.27595 37.0246126 207.2252 35.9047893 206.1752 34.7857226 205.3577 33.4691736 204.77345 31.9558988 204.1877 30.442624 203.89595 28.7931545 203.89595 27.0067337 203.89595 25.3428881 204.1802 23.761516 204.7502 22.2626173 205.31945 20.7644753 206.1152 19.4562493 207.1352 18.3364259 208.15445 17.2166026 209.3702 16.3313369 210.7802 15.6798721 212.18945 15.0299206 213.7502 14.7038099 215.46095 14.7038099 218.3402 14.7038099 220.7252 15.7184606 222.6152 17.7454922L222.6152 15.4309384z"/>
        <polygon points="84.694 5.912 84.694 38.719 92.838 38.719 92.838 3.71"/>
        <polygon points="98.418 2.202 98.418 38.72 106.563 38.72 106.563 0"/>
        <polygon points="70.969 17.465 70.969 38.72 79.114 38.72 79.114 15.431 78.494 15.431"/>
      </g>
    </g>
    <path fill="#6C8487" d="M5.765625,193 L4.359375,193 L4.359375,182.992188 L0.7265625,182.992188 L0.7265625,181.726562 L9.3984375,181.726562 L9.3984375,182.992188 L5.765625,182.992188 L5.765625,193 Z M22.2578125,193 L20.8515625,193 L20.8515625,187.867188 L14.6640625,187.867188 L14.6640625,193 L13.2578125,193 L13.2578125,181.726562 L14.6640625,181.726562 L14.6640625,186.601562 L20.8515625,186.601562 L20.8515625,181.726562 L22.2578125,181.726562 L22.2578125,193 Z M33.8046875,191.734375 L33.8046875,193 L26.8203125,193 L26.8203125,181.726562 L33.8046875,181.726562 L33.8046875,182.992188 L28.2265625,182.992188 L28.2265625,186.609375 L33.515625,186.609375 L33.515625,187.859375 L28.2265625,187.859375 L28.2265625,191.734375 L33.8046875,191.734375 Z M45.6484375,193 L44.2421875,193 L44.2421875,181.726562 L51.0859375,181.726562 L51.0859375,182.992188 L45.6484375,182.992188 L45.6484375,186.867188 L50.640625,186.867188 L50.640625,188.117188 L45.6484375,188.117188 L45.6484375,193 Z M56.53125,181.726562 L56.53125,189.03125 C56.53125,189.880213 56.7994765,190.582028 57.3359375,191.136719 C57.8723985,191.691409 58.6275993,191.96875 59.6015625,191.96875 C60.5807341,191.96875 61.3372369,191.691409 61.8710938,191.136719 C62.4049506,190.582028 62.671875,189.880213 62.671875,189.03125 L62.671875,181.726562 L64.078125,181.726562 L64.078125,189.125 C64.078125,190.328131 63.6822956,191.319007 62.890625,192.097656 C62.0989544,192.876306 61.0026112,193.265625 59.6015625,193.265625 C58.2057222,193.265625 57.1106811,192.876306 56.3164062,192.097656 C55.5221314,191.319007 55.125,190.328131 55.125,189.125 L55.125,181.726562 L56.53125,181.726562 Z M75.5234375,191.734375 L75.5234375,193 L68.6796875,193 L68.6796875,181.726562 L70.0859375,181.726562 L70.0859375,191.734375 L75.5234375,191.734375 Z M86.296875,191.734375 L86.296875,193 L79.453125,193 L79.453125,181.726562 L80.859375,181.726562 L80.859375,191.734375 L86.296875,191.734375 Z M95.890625,190.054688 L97.3125,190.054688 C97.4010421,190.643232 97.7057266,191.111977 98.2265625,191.460938 C98.7473984,191.809898 99.4088502,191.984375 100.210938,191.984375 C100.971358,191.984375 101.600258,191.800783 102.097656,191.433594 C102.595055,191.066404 102.84375,190.604169 102.84375,190.046875 C102.84375,189.567706 102.66146,189.169272 102.296875,188.851562 C101.93229,188.533853 101.361983,188.278647 100.585938,188.085938 L99.140625,187.710938 C98.1197866,187.45052 97.3776065,187.079429 96.9140625,186.597656 C96.4505185,186.115883 96.21875,185.473962 96.21875,184.671875 C96.21875,183.713537 96.5846318,182.938805 97.3164062,182.347656 C98.0481807,181.756507 99.0104107,181.460938 100.203125,181.460938 C101.291672,181.460938 102.203121,181.752601 102.9375,182.335938 C103.671879,182.919274 104.067708,183.666662 104.125,184.578125 L102.710938,184.578125 C102.611979,183.999997 102.337242,183.548179 101.886719,183.222656 C101.436196,182.897134 100.859379,182.734375 100.15625,182.734375 C99.4062462,182.734375 98.8033877,182.906248 98.3476562,183.25 C97.8919248,183.593752 97.6640625,184.05208 97.6640625,184.625 C97.6640625,185.067711 97.8320296,185.427082 98.1679688,185.703125 C98.5039079,185.979168 99.059892,186.216145 99.8359375,186.414062 L101.015625,186.726562 C102.182298,187.018231 103.019529,187.408852 103.527344,187.898438 C104.035159,188.388023 104.289062,189.046871 104.289062,189.875 C104.289062,190.911464 103.91016,191.735674 103.152344,192.347656 C102.394527,192.959638 101.369798,193.265625 100.078125,193.265625 C98.8854107,193.265625 97.9075559,192.973961 97.1445312,192.390625 C96.3815066,191.807289 95.963542,191.028651 95.890625,190.054688 Z M112.648438,193 L111.242188,193 L111.242188,182.992188 L107.609375,182.992188 L107.609375,181.726562 L116.28125,181.726562 L116.28125,182.992188 L112.648438,182.992188 L112.648438,193 Z M126.140625,193 L125.96875,192.511719 C125.854166,192.186196 125.722657,191.8112 125.574219,191.386719 C125.425781,190.962237 125.294271,190.587241 125.179688,190.261719 L125.007812,189.773438 L120.523438,189.773438 L119.390625,193 L117.914062,193 L122.070312,181.726562 L123.460938,181.726562 L127.617188,193 L126.140625,193 Z M122.703125,183.546875 L122.523438,184.054688 C122.403645,184.393231 122.256511,184.812498 122.082031,185.3125 L121.558594,186.8125 C121.384114,187.312502 121.23698,187.731769 121.117188,188.070312 L120.9375,188.578125 L124.59375,188.578125 L122.828125,183.546875 L122.703125,183.546875 Z M135.273438,193.265625 C133.74218,193.265625 132.529952,192.736984 131.636719,191.679688 C130.743485,190.622391 130.296875,189.184905 130.296875,187.367188 C130.296875,185.544262 130.742183,184.104172 131.632812,183.046875 C132.523442,181.989578 133.734367,181.460938 135.265625,181.460938 C136.453131,181.460938 137.468746,181.799476 138.3125,182.476562 C139.156254,183.153649 139.661458,184.036453 139.828125,185.125 L138.398438,185.125 C138.210937,184.39583 137.83594,183.819013 137.273438,183.394531 C136.710935,182.97005 136.041671,182.757812 135.265625,182.757812 C134.182286,182.757812 133.324222,183.171871 132.691406,184 C132.058591,184.828129 131.742188,185.950514 131.742188,187.367188 C131.742188,188.778653 132.059893,189.898433 132.695312,190.726562 C133.330732,191.554692 134.190099,191.96875 135.273438,191.96875 C136.0599,191.96875 136.73307,191.77995 137.292969,191.402344 C137.852867,191.024738 138.221353,190.51042 138.398438,189.859375 L139.828125,189.859375 C139.640624,190.895839 139.134119,191.722653 138.308594,192.339844 C137.483069,192.957034 136.47136,193.265625 135.273438,193.265625 Z M145.28125,193 L143.875,193 L143.875,181.726562 L145.28125,181.726562 L145.28125,187.203125 L145.40625,187.203125 L150.34375,181.726562 L152.109375,181.726562 L147.601562,186.59375 L152.523438,193 L150.703125,193 L146.632812,187.570312 L145.28125,189.0625 L145.28125,193 Z M162.304688,181.726562 L166.171875,181.726562 C167.843758,181.726562 169.148433,182.221349 170.085938,183.210938 C171.023442,184.200526 171.492188,185.583324 171.492188,187.359375 C171.492188,189.135426 171.024744,190.519526 170.089844,191.511719 C169.154943,192.503911 167.848967,193 166.171875,193 L162.304688,193 L162.304688,181.726562 Z M163.710938,182.992188 L163.710938,191.734375 L166.078125,191.734375 C167.338548,191.734375 168.316403,191.351566 169.011719,190.585938 C169.707035,189.820309 170.054688,188.750007 170.054688,187.375 C170.054688,185.994785 169.704431,184.919275 169.003906,184.148438 C168.303382,183.3776 167.328131,182.992188 166.078125,182.992188 L163.710938,182.992188 Z M182.390625,193 L182.21875,192.511719 C182.104166,192.186196 181.972657,191.8112 181.824219,191.386719 C181.675781,190.962237 181.544271,190.587241 181.429688,190.261719 L181.257812,189.773438 L176.773438,189.773438 L175.640625,193 L174.164062,193 L178.320312,181.726562 L179.710938,181.726562 L183.867188,193 L182.390625,193 Z M178.953125,183.546875 L178.773438,184.054688 C178.653645,184.393231 178.506511,184.812498 178.332031,185.3125 L177.808594,186.8125 C177.634114,187.312502 177.48698,187.731769 177.367188,188.070312 L177.1875,188.578125 L180.84375,188.578125 L179.078125,183.546875 L178.953125,183.546875 Z M190.539062,193 L189.132812,193 L189.132812,182.992188 L185.5,182.992188 L185.5,181.726562 L194.171875,181.726562 L194.171875,182.992188 L190.539062,182.992188 L190.539062,193 Z M204.03125,193 L203.859375,192.511719 C203.744791,192.186196 203.613282,191.8112 203.464844,191.386719 C203.316406,190.962237 203.184896,190.587241 203.070312,190.261719 L202.898438,189.773438 L198.414062,189.773438 L197.28125,193 L195.804688,193 L199.960938,181.726562 L201.351562,181.726562 L205.507812,193 L204.03125,193 Z M200.59375,183.546875 L200.414062,184.054688 C200.29427,184.393231 200.147136,184.812498 199.972656,185.3125 L199.449219,186.8125 C199.274739,187.312502 199.127605,187.731769 199.007812,188.070312 L198.828125,188.578125 L202.484375,188.578125 L200.71875,183.546875 L200.59375,183.546875 Z M216.78125,193 L215.375,193 L215.375,181.726562 L222.21875,181.726562 L222.21875,182.992188 L216.78125,182.992188 L216.78125,186.867188 L221.773438,186.867188 L221.773438,188.117188 L216.78125,188.117188 L216.78125,193 Z M227.625,182.976562 L227.625,187.289062 L230.398438,187.289062 C231.122399,187.289062 231.680988,187.102866 232.074219,186.730469 C232.46745,186.358071 232.664062,185.825524 232.664062,185.132812 C232.664062,184.455726 232.458335,183.927085 232.046875,183.546875 C231.635415,183.166665 231.065108,182.976562 230.335938,182.976562 L227.625,182.976562 Z M227.625,188.539062 L227.625,193 L226.21875,193 L226.21875,181.726562 L230.523438,181.726562 C231.611985,181.726562 232.48307,182.032549 233.136719,182.644531 C233.790368,183.256513 234.117188,184.070307 234.117188,185.085938 C234.117188,185.8724 233.916669,186.55208 233.515625,187.125 C233.114581,187.69792 232.559899,188.096353 231.851562,188.320312 L234.460938,193 L232.8125,193 L230.398438,188.539062 L227.625,188.539062 Z M245.6875,193 L245.515625,192.511719 C245.401041,192.186196 245.269532,191.8112 245.121094,191.386719 C244.972656,190.962237 244.841146,190.587241 244.726562,190.261719 L244.554688,189.773438 L240.070312,189.773438 L238.9375,193 L237.460938,193 L241.617188,181.726562 L243.007812,181.726562 L247.164062,193 L245.6875,193 Z M242.25,183.546875 L242.070312,184.054688 C241.95052,184.393231 241.803386,184.812498 241.628906,185.3125 L241.105469,186.8125 C240.930989,187.312502 240.783855,187.731769 240.664062,188.070312 L240.484375,188.578125 L244.140625,188.578125 L242.375,183.546875 L242.25,183.546875 Z M261.9375,193 L260.625,193 L260.625,184.390625 L260.53125,184.390625 L256.976562,192.921875 L255.789062,192.921875 L252.234375,184.390625 L252.140625,184.390625 L252.140625,193 L250.828125,193 L250.828125,181.726562 L252.460938,181.726562 L256.320312,191.054688 L256.445312,191.054688 L260.304688,181.726562 L261.9375,181.726562 L261.9375,193 Z M273.484375,191.734375 L273.484375,193 L266.5,193 L266.5,181.726562 L273.484375,181.726562 L273.484375,182.992188 L267.90625,182.992188 L267.90625,186.609375 L273.195312,186.609375 L273.195312,187.859375 L267.90625,187.859375 L267.90625,191.734375 L273.484375,191.734375 Z M283.976562,184.101562 L283.789062,184.746094 C283.664062,185.175783 283.502605,185.727861 283.304688,186.402344 C283.10677,187.076826 282.898439,187.792965 282.679688,188.550781 C282.460936,189.308598 282.252605,190.024736 282.054688,190.699219 C281.85677,191.373701 281.695313,191.925779 281.570312,192.355469 L281.382812,193 L280.054688,193 L276.984375,181.726562 L278.453125,181.726562 L280.695312,190.890625 L280.789062,190.890625 L283.3125,181.726562 L284.734375,181.726562 L287.257812,190.890625 L287.351562,190.890625 L289.59375,181.726562 L291.0625,181.726562 L287.992188,193 L286.664062,193 L284.070312,184.101562 L283.976562,184.101562 Z M299.164062,181.460938 C300.768237,181.460938 302.028641,181.992182 302.945312,183.054688 C303.861984,184.117193 304.320312,185.552074 304.320312,187.359375 C304.320312,189.161467 303.863286,190.596349 302.949219,191.664062 C302.035152,192.731776 300.773446,193.265625 299.164062,193.265625 C297.549471,193.265625 296.282557,192.731776 295.363281,191.664062 C294.444006,190.596349 293.984375,189.161467 293.984375,187.359375 C293.984375,185.546866 294.449214,184.110682 295.378906,183.050781 C296.308598,181.99088 297.570305,181.460938 299.164062,181.460938 Z M299.164062,182.757812 C298.018223,182.757812 297.109378,183.171871 296.4375,184 C295.765622,184.828129 295.429688,185.94791 295.429688,187.359375 C295.429688,188.755215 295.759111,189.872392 296.417969,190.710938 C297.076826,191.549483 297.992182,191.96875 299.164062,191.96875 C300.320318,191.96875 301.227861,191.549483 301.886719,190.710938 C302.545576,189.872392 302.875,188.755215 302.875,187.359375 C302.875,185.94791 302.544274,184.828129 301.882812,184 C301.221351,183.171871 300.31511,182.757812 299.164062,182.757812 Z M309.851562,182.976562 L309.851562,187.289062 L312.625,187.289062 C313.348962,187.289062 313.90755,187.102866 314.300781,186.730469 C314.694012,186.358071 314.890625,185.825524 314.890625,185.132812 C314.890625,184.455726 314.684898,183.927085 314.273438,183.546875 C313.861977,183.166665 313.29167,182.976562 312.5625,182.976562 L309.851562,182.976562 Z M309.851562,188.539062 L309.851562,193 L308.445312,193 L308.445312,181.726562 L312.75,181.726562 C313.838547,181.726562 314.709632,182.032549 315.363281,182.644531 C316.01693,183.256513 316.34375,184.070307 316.34375,185.085938 C316.34375,185.8724 316.143231,186.55208 315.742188,187.125 C315.341144,187.69792 314.786462,188.096353 314.078125,188.320312 L316.6875,193 L315.039062,193 L312.625,188.539062 L309.851562,188.539062 Z M321.992188,193 C321.992188,193 321.921876,193 321.78125,193 C321.640624,193 321.476563,193 321.289062,193 C321.101562,193 320.937501,193 320.796875,193 C320.656249,193 320.585938,193 320.585938,193 L320.585938,181.726562 L321.992188,181.726562 L321.992188,187.203125 L322.117188,187.203125 L327.054688,181.726562 L328.820312,181.726562 L324.3125,186.59375 L329.234375,193 L327.414062,193 L323.34375,187.570312 L321.992188,189.0625 L321.992188,193 Z"/>
  </g>
</svg>
