<svg xmlns="http://www.w3.org/2000/svg" width="30" height="27" viewBox="0 0 30 27">
  <path fill="#FFF" fill-rule="evenodd" d="M291,399.604 L278.404,387.008 C276.853,385.458 276,383.398 276,381.206 C276,379.014 276.853,376.953 278.404,375.403 C279.954,373.854 282.014,373 284.206,373 C286.398,373 288.458,373.854 290.009,375.403 L291,376.395 L291.991,375.403 C293.541,373.854 295.602,373 297.794,373 C299.986,373 302.046,373.854 303.596,375.403 C305.146,376.953 306,379.014 306,381.206 C306,383.398 305.146,385.458 303.596,387.008 L291,399.604 Z" transform="translate(-276 -373)"/>
</svg>
