<?xml version="1.0" encoding="UTF-8"?>
<svg width="560px" height="220px" viewBox="0 0 560 220" version="1.1" xmlns="http://www.w3.org/2000/svg" xmlns:xlink="http://www.w3.org/1999/xlink">
    <title>Guillotina</title>
    <desc>REST Resource Database</desc>
    <defs></defs>
    <g id="Page-1" stroke="none" stroke-width="1" fill="none" fill-rule="evenodd">
        <g id="guillotina-type---claim">
            <g id="Guillotina" transform="translate(49.000000, 39.000000)" fill="#242424">
                <path d="M37.0894,39.0236981 L72.0994,39.0236981 C72.0994,42.6463396 71.9494,45.9384151 71.6494,48.8969057 C71.3494,51.8538868 70.7494,54.6010566 69.8494,57.1369057 C68.5894,60.7006792 66.8794,63.8553962 64.7194,66.602566 C62.5594,69.3497358 60.0244,71.6440755 57.1144,73.4840755 C54.2044,75.3270943 51.0079,76.7293585 47.5309,77.6953962 C44.0509,78.661434 40.3879,79.1444528 36.5509,79.1444528 C31.2694,79.1444528 26.4544,78.2689811 22.1044,76.5180377 C17.7529,74.7686038 14.0179,72.3082264 10.8994,69.1369057 C7.7794,65.9670943 5.3494,62.1633208 3.6094,57.7270943 C1.8694,53.2878491 0.9994,48.3836981 0.9994,43.0101132 C0.9994,37.6969057 1.8544,32.821434 3.5644,28.3821887 C5.2744,23.9444528 7.7044,20.1557736 10.8544,17.0161509 C14.0044,13.8780377 17.7994,11.4327547 22.2394,9.68181132 C26.6809,7.92935849 31.6279,7.05388679 37.0894,7.05388679 C44.1694,7.05388679 50.3779,8.59350943 55.7194,11.6742642 C61.0594,14.752 65.2894,19.5218113 68.4109,25.9821887 L51.6709,32.9557736 C50.1094,29.2123774 48.0844,26.5270943 45.5944,24.8969057 C43.1044,23.266717 40.2694,22.4516226 37.0894,22.4516226 C34.4494,22.4516226 32.0509,22.9482264 29.8894,23.9444528 C27.7294,24.9406792 25.8844,26.3610566 24.3544,28.2010566 C22.8244,30.0440755 21.6229,32.2629434 20.7544,34.8576604 C19.8829,37.4553962 19.4494,40.3535094 19.4494,43.552 C19.4494,46.4501132 19.8244,49.1384151 20.5744,51.6123774 C21.3244,54.0878491 22.4494,56.2312453 23.9494,58.042566 C25.4494,59.8553962 27.3094,61.2576604 29.5309,62.2553962 C31.7479,63.2516226 34.3294,63.7497358 37.2694,63.7497358 C39.0079,63.7497358 40.6894,63.5535094 42.3094,63.1595472 C43.9309,62.7670943 45.3829,62.1346415 46.6759,61.2576604 C47.9644,60.3821887 49.0279,59.2501132 49.8694,57.861434 C50.7094,56.4742642 51.2779,54.7821887 51.5794,52.7897358 L37.0894,52.7897358 L37.0894,39.0236981 Z" id="Fill-1"></path>
                <path d="M98.01805,30.7836981 L98.01805,56.957283 C98.01805,62.6946415 100.77805,65.5595472 106.29955,65.5595472 C111.81805,65.5595472 114.57955,62.6946415 114.57955,56.957283 L114.57955,30.7836981 L130.86805,30.7836981 L130.86805,60.1255849 C130.86805,66.4063396 128.81155,71.1157736 124.70455,74.2538868 C120.59455,77.3935094 114.45805,78.9648302 106.29955,78.9648302 C98.13805,78.9648302 92.00305,77.3935094 87.89305,74.2538868 C83.78305,71.1157736 81.72955,66.4063396 81.72955,60.1255849 L81.72955,30.7836981 L98.01805,30.7836981 Z" id="Fill-4"></path>
                <path d="M140.85895,12.9417358 C140.85895,11.6738113 141.09595,10.4813585 141.57745,9.36286792 C142.05745,8.24890566 142.71595,7.26626415 143.55745,6.42098113 C144.39745,5.57569811 145.37245,4.91154717 146.48395,4.42701887 C147.59245,3.94550943 148.77745,3.70249057 150.03745,3.70249057 C151.29745,3.70249057 152.48245,3.94550943 153.59395,4.42701887 C154.70245,4.91154717 155.67745,5.57569811 156.51745,6.42098113 C157.35745,7.26626415 158.01745,8.24890566 158.49895,9.36286792 C158.97745,10.4813585 159.21895,11.6738113 159.21895,12.9417358 C159.21895,14.2096604 158.97745,15.4021132 158.49895,16.5175849 C158.01745,17.6360755 157.35745,18.6172075 156.51745,19.4624906 C155.67745,20.309283 154.70245,20.9719245 153.59395,21.4549434 C152.48245,21.9394717 151.29745,22.1779623 150.03745,22.1779623 C148.77745,22.1779623 147.59245,21.9394717 146.48395,21.4549434 C145.37245,20.9719245 144.39745,20.309283 143.55745,19.4624906 C142.71595,18.6172075 142.05745,17.6360755 141.57745,16.5175849 C141.09595,15.4021132 140.85895,14.2096604 140.85895,12.9417358" id="Fill-6"></path>
                <path d="M239.6758,53.7864151 C239.6758,55.3562264 239.9593,56.7901887 240.5293,58.0898113 C241.1008,59.3864151 241.8493,60.5184906 242.7793,61.4860377 C243.7108,62.450566 244.8193,63.205283 246.1108,63.7501887 C247.3993,64.2920755 248.7658,64.5637736 250.2073,64.5637736 C251.6443,64.5637736 253.0108,64.2920755 254.3008,63.7501887 C255.5908,63.205283 256.7008,62.450566 257.6308,61.4860377 C258.5608,60.5184906 259.3093,59.3864151 259.8808,58.0898113 C260.4508,56.7901887 260.7358,55.3879245 260.7358,53.8769811 C260.7358,52.429434 260.4508,51.0543396 259.8808,49.7562264 C259.3093,48.4581132 258.5608,47.3260377 257.6308,46.36 C256.7008,45.3939623 255.5908,44.6392453 254.3008,44.0958491 C253.0108,43.5524528 251.6443,43.2807547 250.2073,43.2807547 C248.7658,43.2807547 247.3993,43.5524528 246.1108,44.0958491 C244.8193,44.6392453 243.7108,45.3939623 242.7793,46.36 C241.8493,47.3260377 241.1008,48.4430189 240.5293,49.7109434 C239.9593,50.9788679 239.6758,52.3373585 239.6758,53.7864151 M222.4858,53.605283 C222.4858,50.165283 223.1743,46.9486792 224.5558,43.96 C225.9358,40.9728302 227.8558,38.3750943 230.3173,36.1713208 C232.7743,33.9675472 235.7008,32.2316981 239.0908,30.9637736 C242.4808,29.6958491 246.1858,29.0618868 250.2073,29.0618868 C254.1658,29.0618868 257.8408,29.6807547 261.2308,30.92 C264.6208,32.1577358 267.5608,33.8784906 270.0508,36.0822642 C272.5393,38.2845283 274.4743,40.9124528 275.8558,43.96 C277.2358,47.010566 277.9258,50.3766038 277.9258,54.0596226 C277.9258,57.7411321 277.2193,61.1086792 275.8108,64.1562264 C274.3993,67.205283 272.4658,69.8316981 270.0058,72.0354717 C267.5443,74.2407547 264.5908,75.9464151 261.1408,77.1509434 C257.6893,78.36 253.9558,78.965283 249.9358,78.965283 C245.9758,78.965283 242.3158,78.36 238.9573,77.1509434 C235.5943,75.9464151 232.7023,74.2241509 230.2693,71.9901887 C227.8408,69.7577358 225.9358,67.0860377 224.5558,63.9750943 C223.1743,60.8656604 222.4858,57.4075472 222.4858,53.605283" id="Fill-8"></path>
                <polygon id="Fill-10" points="305.7343 44.4570566 305.7343 77.2434717 289.4443 77.2434717 289.4443 44.4570566 284.0443 44.4570566 284.0443 30.7830943 289.4443 30.7830943 289.4443 16.8359245 305.7343 16.8359245 305.7343 30.7830943 315.0058 30.7830943 315.0058 44.4570566"></polygon>
                <path d="M322.3825,77.242717 L338.6725,77.242717 L338.6725,30.7838491 L322.3825,30.7838491 L322.3825,77.242717 Z M321.3025,12.9423396 C321.3025,11.6744151 321.541,10.4819623 322.0225,9.3634717 C322.5025,8.248 323.161,7.26686792 324.0025,6.42007547 C324.844,5.57630189 325.816,4.91064151 326.9275,4.42762264 C328.036,3.94611321 329.2225,3.70309434 330.4825,3.70309434 C331.7425,3.70309434 332.926,3.94611321 334.0375,4.42762264 C335.1475,4.91064151 336.1225,5.57630189 336.964,6.42007547 C337.801,7.26686792 338.4625,8.248 338.9425,9.3634717 C339.421,10.4819623 339.6625,11.6744151 339.6625,12.9423396 C339.6625,14.2087547 339.421,15.402717 338.9425,16.5181887 C338.4625,17.6366792 337.801,18.6163019 336.964,19.4630943 C336.1225,20.3083774 335.1475,20.9725283 334.0375,21.4540377 C332.926,21.9400755 331.7425,22.178566 330.4825,22.178566 C329.2225,22.178566 328.036,21.9400755 326.9275,21.4540377 C325.816,20.9725283 324.844,20.3083774 324.0025,19.4630943 C323.161,18.6163019 322.5025,17.6366792 322.0225,16.5181887 C321.541,15.402717 321.3025,14.2087547 321.3025,12.9423396 L321.3025,12.9423396 Z" id="Fill-12"></path>
                <path d="M349.83355,30.7836981 L366.12205,30.7836981 L366.12205,36.6689811 C368.34205,33.9535094 370.59205,32.1286038 372.87205,31.1912453 C375.15205,30.2538868 377.82205,29.7874717 380.88205,29.7874717 C384.12205,29.7874717 386.89705,30.3142642 389.20855,31.3708679 C391.51705,32.4289811 393.48355,33.9233208 395.10355,35.8538868 C396.42205,37.4252075 397.32055,39.1761509 397.80205,41.1082264 C398.28205,43.0403019 398.52205,45.2440755 398.52205,47.7180377 L398.52205,77.242566 L382.23355,77.242566 L382.23355,53.7859623 C382.23355,51.4931321 382.06555,49.6365283 381.73855,48.2161509 C381.40705,46.797283 380.82205,45.6652075 379.98355,44.8199245 C379.26205,44.0953962 378.45205,43.5836981 377.55205,43.2803019 C376.65205,42.9799245 375.69055,42.8274717 374.67205,42.8274717 C371.91205,42.8274717 369.79705,43.6576604 368.32705,45.3180377 C366.85705,46.9799245 366.12205,49.3482264 366.12205,52.4289811 L366.12205,77.242566 L349.83355,77.242566 L349.83355,30.7836981 Z" id="Fill-14"></path>
                <path d="M424.7104,53.8763774 C424.7104,55.3873208 424.9804,56.7910943 425.5204,58.0892075 C426.0604,59.3858113 426.7954,60.5178868 427.7254,61.485434 C428.6554,62.4514717 429.7639,63.2061887 431.0554,63.7495849 C432.3454,64.2914717 433.7404,64.5631698 435.2404,64.5631698 C436.6804,64.5631698 438.0454,64.2914717 439.3354,63.7495849 C440.6239,63.2061887 441.7354,62.4514717 442.6669,61.485434 C443.5954,60.5178868 444.3454,59.4009057 444.9169,58.1329811 C445.4854,56.8650566 445.7704,55.506566 445.7704,54.0590189 C445.7704,52.6084528 445.4854,51.2363774 444.9169,49.9382642 C444.3454,48.6401509 443.5954,47.5080755 442.6669,46.5420377 C441.7354,45.576 440.6239,44.8197736 439.3354,44.2778868 C438.0454,43.7329811 436.6804,43.4627925 435.2404,43.4627925 C433.7404,43.4627925 432.3454,43.7329811 431.0554,44.2778868 C429.7639,44.8197736 428.6554,45.576 427.7254,46.5420377 C426.7954,47.5080755 426.0604,48.6114717 425.5204,49.8461887 C424.9804,51.0839245 424.7104,52.4288302 424.7104,53.8763774 L424.7104,53.8763774 Z M445.2304,30.7835472 L461.6104,30.7835472 L461.6104,77.2424151 L445.2304,77.2424151 L445.2304,72.0816604 C441.7489,76.4876981 437.0419,78.6914717 431.1004,78.6914717 C427.7404,78.6914717 424.6504,78.0710943 421.8304,76.8363774 C419.0089,75.5986415 416.5519,73.861283 414.4504,71.6273208 C412.3504,69.3948679 410.7154,66.7684528 409.5469,63.7495849 C408.3754,60.730717 407.7919,57.4401509 407.7919,53.8763774 C407.7919,50.5571321 408.3604,47.4024151 409.5004,44.4122264 C410.6389,41.4235472 412.2304,38.8137358 414.2704,36.5797736 C416.3089,34.3458113 418.7404,32.5797736 421.5604,31.2801509 C424.3789,29.9835472 427.5004,29.3329811 430.9219,29.3329811 C436.6804,29.3329811 441.4504,31.3571321 445.2304,35.4009057 L445.2304,30.7835472 Z" id="Fill-15"></path>
                <polygon id="Fill-16" points="169.3882 11.7933585 169.3882 77.2424151 185.6767 77.2424151 185.6767 7.40090566"></polygon>
                <polygon id="Fill-17" points="196.8364 4.39245283 196.8364 77.2437736 213.1264 77.2437736 213.1264 0"></polygon>
                <polygon id="Fill-18" points="141.9385 34.8418113 141.9385 77.2433208 158.2285 77.2433208 158.2285 30.7844528 156.988 30.7844528"></polygon>
            </g>
            <path d="M59.1450195,159.595703 L59.1450195,167.784668 L61.1733398,167.784668 C63.0503024,167.784668 64.3596154,167.484459 65.1013184,166.884033 C65.8430213,166.283607 66.2138672,165.261889 66.2138672,163.818848 C66.2138672,162.295077 65.8304075,161.21029 65.0634766,160.564453 C64.2965456,159.918617 62.9998464,159.595703 61.1733398,159.595703 L59.1450195,159.595703 Z M70.5883789,180 L68.1362305,180 L60.355957,169.43457 L59.1450195,169.43457 L59.1450195,180 L57.1318359,180 L57.1318359,157.839844 L61.2036133,157.839844 C63.605318,157.839844 65.4040468,158.33935 66.5998535,159.338379 C67.7956603,160.337407 68.3935547,161.851064 68.3935547,163.879395 C68.3935547,165.604989 67.8814342,166.962235 66.8571777,167.951172 C65.8329213,168.940109 64.4226978,169.43457 62.6264648,169.43457 L70.5883789,180 Z M77.4946289,180 L77.4946289,157.839844 L88.46875,157.839844 L88.46875,159.731934 L79.5078125,159.731934 L79.5078125,166.664551 L88.46875,166.664551 L88.46875,168.556641 L79.5078125,168.556641 L79.5078125,178.10791 L88.46875,178.10791 L88.46875,180 L77.4946289,180 Z M95.7080078,176.276367 L97.4335938,175.353027 C97.756512,176.442877 98.3140423,177.288002 99.1062012,177.888428 C99.8983601,178.488854 100.849441,178.789062 101.959473,178.789062 C103.362149,178.789062 104.457027,178.37533 105.244141,177.547852 C106.031254,176.720373 106.424805,175.57504 106.424805,174.111816 C106.424805,173.04215 106.159915,172.154138 105.630127,171.447754 C105.100339,170.74137 103.962574,169.923996 102.216797,168.995605 C99.9866425,167.814936 98.5032589,166.775558 97.7666016,165.877441 C97.0299442,164.979325 96.6616211,163.899583 96.6616211,162.638184 C96.6616211,161.063957 97.1939237,159.782394 98.2585449,158.793457 C99.3231661,157.80452 100.703117,157.310059 102.398438,157.310059 C103.508469,157.310059 104.474687,157.544675 105.297119,158.013916 C106.119552,158.483157 106.788083,159.187007 107.302734,160.125488 L105.743652,161.063965 C105.420734,160.428219 104.964114,159.943849 104.373779,159.61084 C103.783444,159.27783 103.084639,159.111328 102.277344,159.111328 C101.187495,159.111328 100.319665,159.431719 99.6738281,160.07251 C99.0279916,160.713301 98.7050781,161.578608 98.7050781,162.668457 C98.7050781,164.222501 99.9866408,165.670566 102.549805,167.012695 C103.014,167.254884 103.367186,167.441568 103.609375,167.572754 C105.496429,168.612147 106.757809,169.593501 107.393555,170.516846 C108.0293,171.44019 108.347168,172.638502 108.347168,174.111816 C108.347168,176.099782 107.766933,177.676508 106.606445,178.842041 C105.445958,180.007574 103.866709,180.590332 101.868652,180.590332 C100.41552,180.590332 99.1717988,180.229577 98.1374512,179.508057 C97.1031036,178.786536 96.2932972,177.709317 95.7080078,176.276367 L95.7080078,176.276367 Z M120.77832,180 L120.77832,159.731934 L114.678223,159.731934 L114.678223,157.839844 L128.906738,157.839844 L128.906738,159.731934 L122.791504,159.731934 L122.791504,180 L120.77832,180 Z M151.195801,159.595703 L151.195801,167.784668 L153.224121,167.784668 C155.101084,167.784668 156.410397,167.484459 157.1521,166.884033 C157.893803,166.283607 158.264648,165.261889 158.264648,163.818848 C158.264648,162.295077 157.881189,161.21029 157.114258,160.564453 C156.347327,159.918617 155.050628,159.595703 153.224121,159.595703 L151.195801,159.595703 Z M162.63916,180 L160.187012,180 L152.406738,169.43457 L151.195801,169.43457 L151.195801,180 L149.182617,180 L149.182617,157.839844 L153.254395,157.839844 C155.656099,157.839844 157.454828,158.33935 158.650635,159.338379 C159.846442,160.337407 160.444336,161.851064 160.444336,163.879395 C160.444336,165.604989 159.932215,166.962235 158.907959,167.951172 C157.883703,168.940109 156.473479,169.43457 154.677246,169.43457 L162.63916,180 Z M169.54541,180 L169.54541,157.839844 L180.519531,157.839844 L180.519531,159.731934 L171.558594,159.731934 L171.558594,166.664551 L180.519531,166.664551 L180.519531,168.556641 L171.558594,168.556641 L171.558594,178.10791 L180.519531,178.10791 L180.519531,180 L169.54541,180 Z M187.758789,176.276367 L189.484375,175.353027 C189.807293,176.442877 190.364824,177.288002 191.156982,177.888428 C191.949141,178.488854 192.900222,178.789062 194.010254,178.789062 C195.41293,178.789062 196.507809,178.37533 197.294922,177.547852 C198.082035,176.720373 198.475586,175.57504 198.475586,174.111816 C198.475586,173.04215 198.210696,172.154138 197.680908,171.447754 C197.15112,170.74137 196.013355,169.923996 194.267578,168.995605 C192.037424,167.814936 190.55404,166.775558 189.817383,165.877441 C189.080725,164.979325 188.712402,163.899583 188.712402,162.638184 C188.712402,161.063957 189.244705,159.782394 190.309326,158.793457 C191.373947,157.80452 192.753898,157.310059 194.449219,157.310059 C195.55925,157.310059 196.525468,157.544675 197.3479,158.013916 C198.170333,158.483157 198.838865,159.187007 199.353516,160.125488 L197.794434,161.063965 C197.471515,160.428219 197.014896,159.943849 196.424561,159.61084 C195.834226,159.27783 195.135421,159.111328 194.328125,159.111328 C193.238276,159.111328 192.370446,159.431719 191.724609,160.07251 C191.078773,160.713301 190.755859,161.578608 190.755859,162.668457 C190.755859,164.222501 192.037422,165.670566 194.600586,167.012695 C195.064781,167.254884 195.417968,167.441568 195.660156,167.572754 C197.54721,168.612147 198.808591,169.593501 199.444336,170.516846 C200.080081,171.44019 200.397949,172.638502 200.397949,174.111816 C200.397949,176.099782 199.817714,177.676508 198.657227,178.842041 C197.496739,180.007574 195.91749,180.590332 193.919434,180.590332 C192.466301,180.590332 191.22258,180.229577 190.188232,179.508057 C189.153885,178.786536 188.344078,177.709317 187.758789,176.276367 L187.758789,176.276367 Z M219.686035,178.789062 C220.997891,178.789062 222.239089,178.546877 223.409668,178.0625 C224.580247,177.578123 225.634761,176.871749 226.573242,175.943359 C227.491541,175.004878 228.195391,173.93775 228.684814,172.741943 C229.174237,171.546137 229.418945,170.287279 229.418945,168.965332 C229.418945,167.633294 229.17676,166.374436 228.692383,165.188721 C228.208005,164.003005 227.501632,162.935877 226.573242,161.987305 C225.654943,161.058915 224.607997,160.352541 223.432373,159.868164 C222.256749,159.383787 221.007982,159.141602 219.686035,159.141602 C218.37418,159.141602 217.138027,159.383787 215.977539,159.868164 C214.817051,160.352541 213.767583,161.058915 212.829102,161.987305 C211.900712,162.945968 211.194338,164.013096 210.709961,165.188721 C210.225584,166.364345 209.983398,167.623203 209.983398,168.965332 C209.983398,170.29737 210.225584,171.556228 210.709961,172.741943 C211.194338,173.927659 211.900712,174.994787 212.829102,175.943359 C213.757492,176.881841 214.796869,177.590737 215.947266,178.070068 C217.097662,178.5494 218.343906,178.789062 219.686035,178.789062 L219.686035,178.789062 Z M231.553223,168.965332 C231.553223,170.529467 231.255537,172.015374 230.660156,173.423096 C230.064776,174.830818 229.207037,176.08463 228.086914,177.18457 C226.946609,178.294602 225.660001,179.139727 224.227051,179.719971 C222.794101,180.300214 221.280444,180.590332 219.686035,180.590332 C218.091626,180.590332 216.580492,180.300214 215.152588,179.719971 C213.724684,179.139727 212.445644,178.294602 211.31543,177.18457 C210.185216,176.064448 209.324954,174.80559 208.734619,173.407959 C208.144284,172.010328 207.849121,170.529467 207.849121,168.965332 C207.849121,167.381014 208.144284,165.885017 208.734619,164.477295 C209.324954,163.069573 210.185216,161.80567 211.31543,160.685547 C212.425461,159.585606 213.691887,158.753095 215.114746,158.187988 C216.537605,157.622881 218.061353,157.340332 219.686035,157.340332 C221.320809,157.340332 222.852125,157.625404 224.280029,158.195557 C225.707934,158.765709 226.976882,159.595698 228.086914,160.685547 C229.217128,161.80567 230.07739,163.069573 230.667725,164.477295 C231.25806,165.885017 231.553223,167.381014 231.553223,168.965332 L231.553223,168.965332 Z M239.927734,157.839844 L241.910645,157.839844 L241.910645,172.310547 C241.910645,174.500336 242.410151,176.127517 243.40918,177.192139 C244.408208,178.25676 245.937001,178.789062 247.995605,178.789062 C250.023936,178.789062 251.537593,178.25676 252.536621,177.192139 C253.53565,176.127517 254.035156,174.500336 254.035156,172.310547 L254.035156,157.839844 L256.04834,157.839844 L256.04834,171.659668 C256.04834,174.656753 255.382331,176.894442 254.050293,178.372803 C252.718255,179.851163 250.700046,180.590332 247.995605,180.590332 C245.281074,180.590332 243.257819,179.851163 241.925781,178.372803 C240.593743,176.894442 239.927734,174.656753 239.927734,171.659668 L239.927734,157.839844 Z M267.480469,159.595703 L267.480469,167.784668 L269.508789,167.784668 C271.385752,167.784668 272.695065,167.484459 273.436768,166.884033 C274.178471,166.283607 274.549316,165.261889 274.549316,163.818848 C274.549316,162.295077 274.165857,161.21029 273.398926,160.564453 C272.631995,159.918617 271.335296,159.595703 269.508789,159.595703 L267.480469,159.595703 Z M278.923828,180 L276.47168,180 L268.691406,169.43457 L267.480469,169.43457 L267.480469,180 L265.467285,180 L265.467285,157.839844 L269.539062,157.839844 C271.940767,157.839844 273.739496,158.33935 274.935303,159.338379 C276.131109,160.337407 276.729004,161.851064 276.729004,163.879395 C276.729004,165.604989 276.216883,166.962235 275.192627,167.951172 C274.168371,168.940109 272.758147,169.43457 270.961914,169.43457 L278.923828,180 Z M303.630859,161.896484 C302.530919,160.947912 301.405767,160.246584 300.255371,159.79248 C299.104975,159.338377 297.894049,159.111328 296.622559,159.111328 C293.756659,159.111328 291.42815,160.019522 289.636963,161.835938 C287.845776,163.652353 286.950195,166.018703 286.950195,168.935059 C286.950195,170.398282 287.169676,171.715163 287.608643,172.885742 C288.04761,174.056321 288.716141,175.095699 289.614258,176.003906 C290.502283,176.891932 291.518956,177.568032 292.664307,178.032227 C293.809657,178.496422 295.038242,178.728516 296.350098,178.728516 C297.621588,178.728516 298.862787,178.511558 300.07373,178.077637 C301.284674,177.643715 302.430008,177.002934 303.509766,176.155273 L303.509766,178.516602 C302.419916,179.182621 301.267015,179.694741 300.051025,180.052979 C298.835036,180.411216 297.631679,180.590332 296.440918,180.590332 C294.836418,180.590332 293.302579,180.302737 291.839355,179.727539 C290.376132,179.152341 289.119797,178.345057 288.070312,177.305664 C286.990554,176.235997 286.17318,174.994799 285.618164,173.582031 C285.063148,172.169264 284.785645,170.620288 284.785645,168.935059 C284.785645,167.280102 285.070717,165.736173 285.640869,164.303223 C286.211022,162.870273 287.030919,161.63412 288.100586,160.594727 C289.139979,159.575516 290.393791,158.778323 291.862061,158.203125 C293.33033,157.627927 294.8566,157.340332 296.440918,157.340332 C297.853685,157.340332 299.162999,157.534585 300.368896,157.923096 C301.574794,158.311607 302.672196,158.894365 303.661133,159.671387 L303.630859,161.896484 Z M311.990234,180 L311.990234,157.839844 L322.964355,157.839844 L322.964355,159.731934 L314.003418,159.731934 L314.003418,166.664551 L322.964355,166.664551 L322.964355,168.556641 L314.003418,168.556641 L314.003418,178.10791 L322.964355,178.10791 L322.964355,180 L311.990234,180 Z M346.842773,178.259277 L349.67334,178.259277 C351.964041,178.259277 353.5887,178.130617 354.547363,177.873291 C355.506027,177.615966 356.318356,177.179528 356.984375,176.563965 C357.912765,175.696122 358.614093,174.61638 359.088379,173.324707 C359.562665,172.033034 359.799805,170.559741 359.799805,168.904785 C359.799805,167.209464 359.560142,165.71599 359.080811,164.424316 C358.601479,163.132643 357.892583,162.073084 356.954102,161.245605 C356.247718,160.60986 355.384933,160.160809 354.365723,159.898438 C353.346512,159.636066 351.565442,159.504883 349.022461,159.504883 L348.644043,159.504883 L346.842773,159.504883 L346.842773,178.259277 Z M344.82959,180 L344.82959,157.839844 L348.280762,157.839844 C351.358577,157.839844 353.543288,157.991209 354.834961,158.293945 C356.126634,158.596681 357.236649,159.11637 358.165039,159.853027 C359.396165,160.831873 360.334632,162.093254 360.980469,163.637207 C361.626305,165.18116 361.949219,166.947093 361.949219,168.935059 C361.949219,170.923024 361.626305,172.69148 360.980469,174.240479 C360.334632,175.789477 359.406256,177.028153 358.195312,177.956543 C357.236649,178.6932 356.14177,179.217935 354.910645,179.530762 C353.679519,179.843589 351.696628,180 348.961914,180 L348.280762,180 L344.82959,180 Z M372.518555,170.766602 L380.238281,170.766602 L376.454102,161.124512 L372.518555,170.766602 Z M366.857422,180 L376.590332,156.961914 L385.914551,180 L383.719727,180 L380.88916,172.492188 L371.837402,172.492188 L368.900879,180 L366.857422,180 Z M394.637207,180 L394.637207,159.731934 L388.537109,159.731934 L388.537109,157.839844 L402.765625,157.839844 L402.765625,159.731934 L396.650391,159.731934 L396.650391,180 L394.637207,180 Z M410.489258,170.766602 L418.208984,170.766602 L414.424805,161.124512 L410.489258,170.766602 Z M404.828125,180 L414.561035,156.961914 L423.885254,180 L421.69043,180 L418.859863,172.492188 L409.808105,172.492188 L406.871582,180 L404.828125,180 Z M432.380859,167.693848 L434.893555,167.693848 C436.740244,167.693848 438.044511,167.391116 438.806396,166.785645 C439.568282,166.180173 439.949219,165.171068 439.949219,163.758301 C439.949219,162.23453 439.578373,161.159834 438.83667,160.53418 C438.094967,159.908526 436.780608,159.595703 434.893555,159.595703 L432.380859,159.595703 L432.380859,167.693848 Z M432.380859,178.259277 L434.954102,178.259277 C436.417325,178.259277 437.42643,178.198731 437.981445,178.077637 C438.536461,177.956542 439.005695,177.749676 439.38916,177.457031 C439.863446,177.093748 440.241861,176.591719 440.524414,175.950928 C440.806968,175.310137 440.948242,174.626468 440.948242,173.899902 C440.948242,173.011877 440.791831,172.232344 440.479004,171.561279 C440.166177,170.890215 439.732262,170.388185 439.177246,170.055176 C438.793781,169.833169 438.342206,169.674236 437.82251,169.578369 C437.302813,169.482503 436.493007,169.43457 435.393066,169.43457 L434.954102,169.43457 L432.380859,169.43457 L432.380859,178.259277 Z M430.367676,180 L430.367676,157.839844 L434.212402,157.839844 C435.897632,157.839844 437.113603,157.920572 437.860352,158.082031 C438.6071,158.24349 439.242836,158.520994 439.767578,158.914551 C440.504235,159.469567 441.064288,160.148189 441.447754,160.950439 C441.831219,161.75269 442.022949,162.638179 442.022949,163.606934 C442.022949,164.787604 441.715172,165.791663 441.099609,166.619141 C440.484046,167.446619 439.636399,167.991535 438.556641,168.253906 C439.979499,168.465821 441.09456,169.035965 441.901855,169.964355 C442.709151,170.892746 443.112793,172.068352 443.112793,173.491211 C443.112793,174.530604 442.956382,175.453935 442.643555,176.26123 C442.330728,177.068526 441.856448,177.764808 441.220703,178.350098 C440.574867,178.955569 439.797856,179.381916 438.889648,179.62915 C437.981441,179.876385 436.432465,180 434.242676,180 L430.367676,180 Z M454.151367,170.766602 L461.871094,170.766602 L458.086914,161.124512 L454.151367,170.766602 Z M448.490234,180 L458.223145,156.961914 L467.547363,180 L465.352539,180 L462.521973,172.492188 L453.470215,172.492188 L450.533691,180 L448.490234,180 Z M472.334473,176.276367 L474.060059,175.353027 C474.382977,176.442877 474.940507,177.288002 475.732666,177.888428 C476.524825,178.488854 477.475906,178.789062 478.585938,178.789062 C479.988614,178.789062 481.083492,178.37533 481.870605,177.547852 C482.657719,176.720373 483.05127,175.57504 483.05127,174.111816 C483.05127,173.04215 482.78638,172.154138 482.256592,171.447754 C481.726804,170.74137 480.589039,169.923996 478.843262,168.995605 C476.613107,167.814936 475.129724,166.775558 474.393066,165.877441 C473.656409,164.979325 473.288086,163.899583 473.288086,162.638184 C473.288086,161.063957 473.820389,159.782394 474.88501,158.793457 C475.949631,157.80452 477.329581,157.310059 479.024902,157.310059 C480.134934,157.310059 481.101151,157.544675 481.923584,158.013916 C482.746016,158.483157 483.414548,159.187007 483.929199,160.125488 L482.370117,161.063965 C482.047199,160.428219 481.590579,159.943849 481.000244,159.61084 C480.409909,159.27783 479.711104,159.111328 478.903809,159.111328 C477.813959,159.111328 476.94613,159.431719 476.300293,160.07251 C475.654456,160.713301 475.331543,161.578608 475.331543,162.668457 C475.331543,164.222501 476.613106,165.670566 479.17627,167.012695 C479.640465,167.254884 479.993651,167.441568 480.23584,167.572754 C482.122894,168.612147 483.384274,169.593501 484.02002,170.516846 C484.655765,171.44019 484.973633,172.638502 484.973633,174.111816 C484.973633,176.099782 484.393398,177.676508 483.23291,178.842041 C482.072423,180.007574 480.493174,180.590332 478.495117,180.590332 C477.041985,180.590332 475.798264,180.229577 474.763916,179.508057 C473.729568,178.786536 472.919762,177.709317 472.334473,176.276367 L472.334473,176.276367 Z M493.469238,180 L493.469238,157.839844 L504.443359,157.839844 L504.443359,159.731934 L495.482422,159.731934 L495.482422,166.664551 L504.443359,166.664551 L504.443359,168.556641 L495.482422,168.556641 L495.482422,178.10791 L504.443359,178.10791 L504.443359,180 L493.469238,180 Z" id="REST-RESOURCE-DATABA" fill="#6C8487"></path>
        </g>
    </g>
</svg>